<svg xmlns="http://www.w3.org/2000/svg" width="267" height="238" viewBox="0 0 267 238"><title>Artboard 2</title><g style="opacity:0.05"><path d="M34.1,173.4a14.8,14.8,0,0,0-16.9,2.7,13.6,13.6,0,0,0-2.7,16.1,10.5,10.5,0,0,0,11.2,5.3,8.7,8.7,0,0,0,7-7.9,6.8,6.8,0,0,0-1.4-4.4c-1.6-1.5-4.3-2.9-6.5-1.5s-1.8,4.4-1.4,6.7c-4.4.9-5.3-4-4.9-7.2,2.3-8,13-8.9,18.3-3.5s5.8,11.6,3.1,17.4-7.5,8-12.4,10.7A19.1,19.1,0,0,0,44,191.3,17.6,17.6,0,0,0,34.1,173.4Z" style="fill:#fff"/><path d="M66.4,191.8a19,19,0,0,0-22,7.8c4.5-3.2,9.2-6.9,15-6.7a15.8,15.8,0,0,1,14.4,10.3c2.5,7.1-2.8,16.4-11,15-3.1-.9-7.1-3.8-4.4-7.5,1.8,1.4,4.3,3.5,6.6,1.6s2.1-4.4,1.4-6.4a6.3,6.3,0,0,0-3.4-3.2,8.7,8.7,0,0,0-10.1,2.9A10.5,10.5,0,0,0,53,218a13.5,13.5,0,0,0,15.6,4.4,14.9,14.9,0,0,0,9.7-14.1A17.4,17.4,0,0,0,66.4,191.8Z" style="fill:#fff"/><path d="M73.7,194c7.9,4.8,18.6,2,23.4-5.6s2.6-16.7-5.5-20.8c-5.2-2.6-11.7-1.2-14.7,3.8-1.2,2.5-2,5.2-.6,7.8s4.7,5,8,3.4-.2-4.4-.8-6.5,2.5-3.7,4.8-3.7c5.2,1,7.6,7,6.2,12-2.9,9.4-13.7,11.6-22,8.4Q71.9,192.8,73.7,194Z" style="fill:#fff"/><path d="M34,211.5a45.8,45.8,0,0,0,11-3.8,37.7,37.7,0,0,0,5.3-3,2.9,2.9,0,0,0,.7-4.1,3,3,0,0,0-4-.3c-.3.3-1.9,1.7-4.3,3.5a42.1,42.1,0,0,1-9.5,5A32.9,32.9,0,0,1,22.9,211a24.9,24.9,0,0,1-4.9-.1,31.9,31.9,0,0,0,4.9,1A35.5,35.5,0,0,0,34,211.5Z" style="fill:#fff"/><path d="M44.4,214.9a3.1,3.1,0,0,0-3.6-1.7c-.4.1-2.3.9-5,1.6a30.6,30.6,0,0,1-4.7.8,24.4,24.4,0,0,1-5.4,0,21.6,21.6,0,0,1-5.3-1.1,36.5,36.5,0,0,1-4.4-1.8,16.1,16.1,0,0,1-3.7-2.7,14.6,14.6,0,0,0,3.3,3.4,22.4,22.4,0,0,0,4.1,2.7,23.5,23.5,0,0,0,5.4,2.2,31.6,31.6,0,0,0,6,1.1h5.4a38.8,38.8,0,0,0,5.9-1A2.8,2.8,0,0,0,44.4,214.9Z" style="fill:#fff"/><path d="M25.1,225.3a2.2,2.2,0,0,0-.9-2.7l-3.3-1.4a29.1,29.1,0,0,1-5.9-3.8,18.8,18.8,0,0,1-4.4-5.2,10.9,10.9,0,0,1-1.3-2.8,15.8,15.8,0,0,0,.7,3.1,23.5,23.5,0,0,0,3.6,6.4,24.2,24.2,0,0,0,5.5,5.2,27.4,27.4,0,0,0,3.3,2.2A2,2,0,0,0,25.1,225.3Z" style="fill:#fff"/><path d="M119.7,189.9a2.9,2.9,0,0,0-4-.3,47.1,47.1,0,0,1-4.4,3.5,41.2,41.2,0,0,1-9.4,5,32.9,32.9,0,0,1-10.3,2.2,24.9,24.9,0,0,1-4.9-.1,32.1,32.1,0,0,0,4.8,1,35.4,35.4,0,0,0,11.1-.4,45.1,45.1,0,0,0,11.1-3.8,45.9,45.9,0,0,0,5.3-3A2.9,2.9,0,0,0,119.7,189.9Z" style="fill:#fff"/><path d="M109.5,202.5c-.4.1-2.3.9-5.1,1.6a30.6,30.6,0,0,1-4.7.8,24.4,24.4,0,0,1-5.4,0,21.8,21.8,0,0,1-5.2-1.1,26.7,26.7,0,0,1-4.4-1.8,23.4,23.4,0,0,1-3.8-2.7,23.2,23.2,0,0,0,3.3,3.4,27.7,27.7,0,0,0,4.2,2.7,23.5,23.5,0,0,0,5.4,2.2,32.1,32.1,0,0,0,5.9,1.1,48.5,48.5,0,0,0,5.4,0,36.1,36.1,0,0,0,5.9-1,2.7,2.7,0,0,0,2-3.5A2.9,2.9,0,0,0,109.5,202.5Z" style="fill:#fff"/><path d="M92.9,211.9l-3.3-1.4a26.6,26.6,0,0,1-5.9-3.8,18.8,18.8,0,0,1-4.4-5.2,10.9,10.9,0,0,1-1.3-2.8,10,10,0,0,0,.7,3.1,22.9,22.9,0,0,0,3.5,6.4,29.2,29.2,0,0,0,5.5,5.2,24.9,24.9,0,0,0,3.4,2.2,2,2,0,0,0,2.7-1A2.2,2.2,0,0,0,92.9,211.9Z" style="fill:#fff"/><path d="M104.3,193.1a34.5,34.5,0,0,0,5.3-3.9,32.5,32.5,0,0,0,4.1-4.3,28.4,28.4,0,0,0,3.5-5.4,4.3,4.3,0,0,0,.1-2.5,2.5,2.5,0,0,0-1.6-1.4,3,3,0,0,0-2.1.3,3.5,3.5,0,0,0-1.5,1.7,38.2,38.2,0,0,1-2.3,5.1,31.9,31.9,0,0,1-2.9,4.2,28,28,0,0,1-4.3,4.1,30.8,30.8,0,0,1-5,3.3,25.7,25.7,0,0,1-4.9,2.2,27.9,27.9,0,0,1-5.1,1.4,32.4,32.4,0,0,0,5.4-.6A39.6,39.6,0,0,0,104.3,193.1Z" style="fill:#fff"/><path d="M102.5,187.8a25,25,0,0,0,2.7-3.8,29.3,29.3,0,0,0,4.3-15.4,27.3,27.3,0,0,0-.3-5.6,2.7,2.7,0,0,0-3.3-2.1,2.8,2.8,0,0,0-2.1,3.2,36.1,36.1,0,0,1,1.1,4.8,30.2,30.2,0,0,1,0,9.5,27,27,0,0,1-1.2,4.9c-.6,1.5-1.3,2.8-1.9,4a19.2,19.2,0,0,1-2.6,3.5A19.7,19.7,0,0,0,102.5,187.8Z" style="fill:#fff"/><path d="M84.4,160.4a26.5,26.5,0,0,1,5.3,1.7,21.4,21.4,0,0,1,4.4,2.4,16,16,0,0,1,4,3.8,15,15,0,0,1,2.6,5,19.4,19.4,0,0,1,1,4.9,17.8,17.8,0,0,1-.3,5,18.6,18.6,0,0,0,1.1-4.9,19.8,19.8,0,0,0-.1-5.4,20.3,20.3,0,0,0-2-6.5,18.2,18.2,0,0,0-3.4-4.8,37.2,37.2,0,0,0-4.6-3.8,19.9,19.9,0,0,0-6.1-2.7c-1.7-.3-3.7.3-4,1.8A3,3,0,0,0,84.4,160.4Z" style="fill:#fff"/><path d="M27.7,168.5c-.3.3.3.3,1.7,0,8.9-2.2,14.5-11.8,12.6-20.5s-10-13.7-18.6-10.8a11.1,11.1,0,0,0-7.7,13.1c.9,2.5,2.2,5,5.1,5.9s6.8.2,8-3.2-3.2-3.1-5.2-4.1-.8-4.4.8-6c4.4-3,10.3-.4,12.9,4.1C42,155.7,35.8,164.9,27.7,168.5Z" style="fill:#fff"/><path d="M54.6,152.8a43.9,43.9,0,0,0,5.2-10.4,46.6,46.6,0,0,0,1.6-5.9,2.8,2.8,0,1,0-5.4-.8c-.1.4-.2,2.5-.7,5.5a43.2,43.2,0,0,1-3,10.3,33.6,33.6,0,0,1-5.8,8.8,20.8,20.8,0,0,1-3.5,3.3,33.6,33.6,0,0,0,4.1-2.6A37.9,37.9,0,0,0,54.6,152.8Z" style="fill:#fff"/><path d="M65.5,151.8a2.8,2.8,0,0,0-1.1-3.9,2.9,2.9,0,0,0-3.7,1.3c-.2.3-1,2.2-2.4,4.7a41.4,41.4,0,0,1-2.8,3.9,27.3,27.3,0,0,1-3.8,3.8,23.1,23.1,0,0,1-8.9,4.7,17.9,17.9,0,0,1-4.6.8,23.5,23.5,0,0,0,4.8.1,38.8,38.8,0,0,0,4.9-1,30.4,30.4,0,0,0,5.3-2.3,29.8,29.8,0,0,0,5-3.5,34,34,0,0,0,3.8-3.8A29.1,29.1,0,0,0,65.5,151.8Z" style="fill:#fff"/><path d="M58.1,168.8a2.1,2.1,0,0,0-2.5-1.2,30.3,30.3,0,0,1-3.3,1.3,26.2,26.2,0,0,1-6.8,1.5,20.7,20.7,0,0,1-6.8-.5,14.6,14.6,0,0,1-3-1.1,18.8,18.8,0,0,0,2.7,1.7,24.3,24.3,0,0,0,7,2,32.3,32.3,0,0,0,7.7-.2,28.2,28.2,0,0,0,3.9-.8A2,2,0,0,0,58.1,168.8Z" style="fill:#fff"/><path d="M50.3,146.2a29.5,29.5,0,0,0,1.1-6.5,28.7,28.7,0,0,0-.1-5.9,31.9,31.9,0,0,0-1.4-6.3,3.3,3.3,0,0,0-1.7-1.8,2.2,2.2,0,0,0-2.1.1,2.7,2.7,0,0,0-1.3,1.7,3.7,3.7,0,0,0,.1,2.3,22,22,0,0,1,2,5.2,22.4,22.4,0,0,1,.9,5,29.1,29.1,0,0,1,0,5.9,36.3,36.3,0,0,1-1.3,5.9,26.1,26.1,0,0,1-1.9,5,25.2,25.2,0,0,1-2.6,4.6,29.9,29.9,0,0,0,3.3-4.2A36.3,36.3,0,0,0,50.3,146.2Z" style="fill:#fff"/><path d="M29.6,126.1a31.6,31.6,0,0,1,4.1,2.6,28.3,28.3,0,0,1,6.7,6.7,23.4,23.4,0,0,1,2.6,4.3,21.4,21.4,0,0,1,1.5,4.2,17.6,17.6,0,0,1,.7,4.3,20.8,20.8,0,0,0,.1-4.5,30.4,30.4,0,0,0-.7-4.6,28.4,28.4,0,0,0-1.8-5.1,33.1,33.1,0,0,0-6-8.8,29.4,29.4,0,0,0-4.2-3.7,2.6,2.6,0,0,0-3.8.8A2.8,2.8,0,0,0,29.6,126.1Z" style="fill:#fff"/><path d="M9.2,136.2a3.1,3.1,0,0,0,4,.9,34.3,34.3,0,0,1,5-2.5,20,20,0,0,1,4.7-1.4,17.5,17.5,0,0,1,5.6-.1,14.8,14.8,0,0,1,5.4,1.7,18.4,18.4,0,0,1,4.1,2.8,21.7,21.7,0,0,1,3.4,3.6,26.3,26.3,0,0,0-2.7-4.2,23.3,23.3,0,0,0-3.9-3.7,20.3,20.3,0,0,0-6-3.2,16.9,16.9,0,0,0-5.8-1,46.8,46.8,0,0,0-6,.6,18.6,18.6,0,0,0-6.2,2.4C9.4,133,8.4,134.9,9.2,136.2Z" style="fill:#fff"/><path d="M20.4,206.3a21,21,0,0,0,7.3-2.8,19.4,19.4,0,0,0,3.3-2.6c.8-.9.9-2.1.2-2.6a1.8,1.8,0,0,0-2.4.6,35.1,35.1,0,0,1-2.6,2.5,18.7,18.7,0,0,1-6.1,3.4,24.1,24.1,0,0,1-10.3.9,18.6,18.6,0,0,0,3.2.6A26.1,26.1,0,0,0,20.4,206.3Z" style="fill:#fff"/><path d="M11.7,223.3a1.5,1.5,0,0,0-.8-.8c-.5-.2-1.3-.2-1.6.3s0,1.2.4,1.7-1.7-.3-1.9-1.1,2-3.4,3.8-2.8a4,4,0,0,1,2.5,3.6c.1,1.5-.8,2.7-1.6,3.8a4.7,4.7,0,0,0,1.9-5.5,4.3,4.3,0,0,0-4.1-3,3.9,3.9,0,0,0-3.6,2.4,3.4,3.4,0,0,0,1.2,3.9,2.7,2.7,0,0,0,3.1.1A2.4,2.4,0,0,0,11.7,223.3Z" style="fill:#fff"/><path d="M19,168.2a2,2,0,0,0,1.8-3.6c-.9-.5-4.2-1.1-4.7-.1S18.1,167.6,19,168.2Z" style="fill:#fff"/><path d="M13.4,169.3a1.9,1.9,0,0,0,1.9,2,2,2,0,0,0,2-2c0-1-.9-4.1-2-4.3a1.2,1.2,0,0,0,1-1.1v-.3c.6.9,3.7-.2,4.6-.8a2,2,0,0,0,.6-2.7,2,2,0,0,0-2.7-.6c-.9.5-2.8,2.8-2.6,3.9s-.4-.5-.7-.5,1.7-3.3,1.7-4.3a1.9,1.9,0,0,0-1.9-2,2,2,0,0,0-2,2c0,1,.9,3.8,1.8,4.2a1.2,1.2,0,0,0-.7.5c.3-1-1.5-3.3-2.3-4a1.9,1.9,0,0,0-2.7.3,1.9,1.9,0,0,0,.3,2.8c.8.7,3.8,1.9,4.5,1.1v.4a1,1,0,0,0,1,1.1C14.1,165.3,13.4,168.3,13.4,169.3Z" style="fill:#fff"/><path d="M11.2,168.3c1-.5,3.5-2.6,3.1-3.6s-3.6-.5-4.6-.1a2,2,0,0,0-1.1,2.6A2.1,2.1,0,0,0,11.2,168.3Z" style="fill:#fff"/><path d="M75.5,167.2a2,2,0,0,0-.9-2.7c-.9-.5-4.2-1.2-4.7-.2s2,3.2,2.9,3.7A2.1,2.1,0,0,0,75.5,167.2Z" style="fill:#fff"/><path d="M71.1,169.2c0-1.1-.9-4.2-2-4.3a1.2,1.2,0,0,0,1-1.1c0-.2-.1-.3-.1-.4s3.7-.2,4.6-.7a2.1,2.1,0,0,0,.6-2.8,2,2,0,0,0-2.7-.6c-.9.6-2.8,2.9-2.6,3.9a1.3,1.3,0,0,0-.7-.5c1-.3,1.7-3.3,1.7-4.3a1.9,1.9,0,0,0-1.9-2,2,2,0,0,0-2,2c0,1,.9,3.9,1.8,4.3a1,1,0,0,0-.7.4c.3-1-1.5-3.3-2.3-3.9a1.8,1.8,0,0,0-2.7.3,2,2,0,0,0,.3,2.8c.8.6,3.8,1.8,4.6,1.1s-.1.2-.1.4a1.1,1.1,0,0,0,1,1.1c-1,.3-1.7,3.2-1.7,4.3a2,2,0,1,0,3.9,0Z" style="fill:#fff"/><path d="M68.1,164.5c-.4-1-3.6-.5-4.6-.1a2,2,0,1,0,1.5,3.7C66,167.7,68.6,165.5,68.1,164.5Z" style="fill:#fff"/><path d="M47.9,181.1a2.1,2.1,0,0,0-1.2,2.9,2.2,2.2,0,0,0,2.7,1.3,2.4,2.4,0,0,0,1.3-2.8A2.2,2.2,0,0,0,47.9,181.1Z" style="fill:#fff"/><path d="M54.3,179.8a1.8,1.8,0,0,0-1.4,2.2,1.8,1.8,0,0,0,2,1.4,1.7,1.7,0,0,0,1.4-2A1.8,1.8,0,0,0,54.3,179.8Z" style="fill:#fff"/><path d="M58.7,181.2a1.2,1.2,0,0,0,1.2,1.3,1.3,1.3,0,0,0,1.3-1.3,1.3,1.3,0,0,0-1.2-1.4A1.3,1.3,0,0,0,58.7,181.2Z" style="fill:#fff"/><path d="M64.6,180.7a1,1,0,0,0-1.1.8c0,.5.3,1,.7,1a1,1,0,0,0,1.1-.7A.9.9,0,0,0,64.6,180.7Z" style="fill:#fff"/><path d="M67.5,182.5a.8.8,0,0,0,.4.9c.3.2.7,0,.9-.4a.6.6,0,0,0-.4-.9C68.1,181.9,67.7,182.1,67.5,182.5Z" style="fill:#fff"/><path d="M71,184.8a.7.7,0,0,0,.7-.2.5.5,0,0,0-.1-.7.4.4,0,0,0-.7.2A.5.5,0,0,0,71,184.8Z" style="fill:#fff"/><path d="M73.6,186a.3.3,0,0,0,0,.4h.5a.2.2,0,0,0-.1-.4C73.9,185.8,73.7,185.9,73.6,186Z" style="fill:#fff"/><path d="M76,188.3c.1,0,.1-.2,0-.3h-.3c-.1.1-.1.3,0,.3Z" style="fill:#fff"/><path d="M81,218.9a3.2,3.2,0,0,0-3.8,1.7,3,3,0,0,0,1.5,4.1,2.9,2.9,0,0,0,3.9-1.9A3.2,3.2,0,0,0,81,218.9Z" style="fill:#fff"/><path d="M90.3,224.8a2.5,2.5,0,0,0-1.8-2.9,2.5,2.5,0,0,0-2.9,1.9,2.4,2.4,0,0,0,1.8,3A2.5,2.5,0,0,0,90.3,224.8Z" style="fill:#fff"/><path d="M95.3,223.4a1.9,1.9,0,0,0-1.8,1.8,1.7,1.7,0,0,0,1.7,1.9,1.8,1.8,0,0,0,1.8-1.8A1.9,1.9,0,0,0,95.3,223.4Z" style="fill:#fff"/><path d="M101.2,223.7a1.3,1.3,0,0,0-1,1.4,1.2,1.2,0,0,0,1.4,1.1,1.2,1.2,0,0,0,1-1.5A1.2,1.2,0,0,0,101.2,223.7Z" style="fill:#fff"/><path d="M106.3,222.7a1,1,0,0,0-.5,1.2.9.9,0,0,0,1.2.7,1,1,0,0,0,.5-1.3A.9.9,0,0,0,106.3,222.7Z" style="fill:#fff"/><path d="M110.7,221a.8.8,0,0,0-.2,1,.7.7,0,0,0,.9.3.6.6,0,0,0,.2-1A.7.7,0,0,0,110.7,221Z" style="fill:#fff"/><path d="M114.4,218.9c-.2.1-.2.4-.1.6a.5.5,0,0,0,.6.1.4.4,0,1,0-.5-.7Z" style="fill:#fff"/><path d="M117.3,216.4a.2.2,0,0,0,.1.4c.1.1.3.2.4,0a.3.3,0,0,0,0-.4Z" style="fill:#fff"/><path d="M104,159a2.1,2.1,0,0,0,1.6-2.7,2.2,2.2,0,0,0-2.8-1.4A2.1,2.1,0,1,0,104,159Z" style="fill:#fff"/><path d="M101.9,152.8a1.8,1.8,0,0,0,.9-2.4,1.7,1.7,0,0,0-2.4-.7,1.7,1.7,0,0,0-.8,2.3A1.8,1.8,0,0,0,101.9,152.8Z" style="fill:#fff"/><path d="M97.6,145.6a1.3,1.3,0,0,0-.3,1.8,1.3,1.3,0,0,0,1.8.3,1.4,1.4,0,0,0,.4-1.9A1.4,1.4,0,0,0,97.6,145.6Z" style="fill:#fff"/><path d="M94.7,142.7a.9.9,0,0,0,.1,1.3.8.8,0,0,0,1.2-.1.9.9,0,0,0,0-1.3A.9.9,0,0,0,94.7,142.7Z" style="fill:#fff"/><path d="M91.7,140.6a.7.7,0,0,0,.2.9.8.8,0,0,0,1-.2.8.8,0,0,0-.2-1A.7.7,0,0,0,91.7,140.6Z" style="fill:#fff"/><path d="M88.7,139.1a.5.5,0,0,0,.3.7.4.4,0,0,0,.6-.3.6.6,0,0,0-.2-.7A.6.6,0,0,0,88.7,139.1Z" style="fill:#fff"/><path d="M85.9,138.3c-.1.2,0,.4.2.4a.5.5,0,0,0,.4-.3.3.3,0,0,0-.3-.3C86.1,138,85.9,138.1,85.9,138.3Z" style="fill:#fff"/><path d="M83.2,137.9c-.1.1,0,.2.1.3s.3-.1.3-.2-.1-.3-.2-.3A.2.2,0,0,0,83.2,137.9Z" style="fill:#fff"/><path d="M240.4,137.2c-8.5-2.9-16.8,3-18.6,10.8s3.7,18.3,12.6,20.5c1.4.3,2.1.3,1.7,0-8.1-3.6-14.2-12.8-9.6-21.5,2.6-4.5,8.5-7.1,12.9-4.1,1.6,1.6,3.2,5.1.8,6s-5.9.3-5.2,4.1,4.7,4.4,8,3.2,4.2-3.4,5.1-5.9A11.1,11.1,0,0,0,240.4,137.2Z" style="fill:#fff"/><path d="M204,142.4a43.9,43.9,0,0,0,5.2,10.4,40.6,40.6,0,0,0,7.5,8.2,24.2,24.2,0,0,0,4.2,2.6,19,19,0,0,1-3.6-3.3,33.5,33.5,0,0,1-5.7-8.8,43.8,43.8,0,0,1-3.1-10.3c-.5-3-.6-5.1-.7-5.5a2.9,2.9,0,0,0-3-2.7,3,3,0,0,0-2.4,3.5A46.6,46.6,0,0,0,204,142.4Z" style="fill:#fff"/><path d="M205.6,160.4a29.8,29.8,0,0,0,5,3.5,28.3,28.3,0,0,0,5.4,2.3,34.4,34.4,0,0,0,4.8,1,23.5,23.5,0,0,0,4.8-.1,17.9,17.9,0,0,1-4.6-.8,24.6,24.6,0,0,1-4.4-1.7,25.2,25.2,0,0,1-4.5-3,28.2,28.2,0,0,1-6.5-7.7c-1.5-2.5-2.3-4.4-2.5-4.7a2.9,2.9,0,0,0-3.7-1.3,2.8,2.8,0,0,0-1.1,3.9,29.1,29.1,0,0,0,3.5,4.8A45.4,45.4,0,0,0,205.6,160.4Z" style="fill:#fff"/><path d="M228.1,168.8a15,15,0,0,1-2.9,1.1,21.6,21.6,0,0,1-6.9.5,24.5,24.5,0,0,1-6.7-1.5c-1.9-.6-3.1-1.2-3.4-1.3a2.1,2.1,0,0,0-2.5,1.2,2,2,0,0,0,1.1,2.7,28.2,28.2,0,0,0,3.9.8,32.3,32.3,0,0,0,7.7.2,24.3,24.3,0,0,0,7-2A13.4,13.4,0,0,0,228.1,168.8Z" style="fill:#fff"/><path d="M219.2,156.8a26.1,26.1,0,0,1-1.9-5,28.1,28.1,0,0,1-1.2-5.9,23.4,23.4,0,0,1-.1-5.9,30.1,30.1,0,0,1,.9-5,22,22,0,0,1,2-5.2,3.7,3.7,0,0,0,.1-2.3,2.7,2.7,0,0,0-1.3-1.7,2.2,2.2,0,0,0-2.1-.1,2.9,2.9,0,0,0-1.6,1.8,28.6,28.6,0,0,0-1.6,12.2,29.5,29.5,0,0,0,1.1,6.5,36.3,36.3,0,0,0,5,11,29.9,29.9,0,0,0,3.3,4.2A25.2,25.2,0,0,1,219.2,156.8Z" style="fill:#fff"/><path d="M230.1,128.7c2.2-1.6,3.9-2.4,4.1-2.6a3,3,0,0,0,.9-3.8,2.7,2.7,0,0,0-3.9-.8,29.4,29.4,0,0,0-4.2,3.7,33.1,33.1,0,0,0-6,8.8,28.4,28.4,0,0,0-1.8,5.1,30.4,30.4,0,0,0-.7,4.6,17,17,0,0,0,.2,4.5,20.4,20.4,0,0,1,.6-4.3q.6-2,1.5-4.2a23.4,23.4,0,0,1,2.6-4.3A28.3,28.3,0,0,1,230.1,128.7Z" style="fill:#fff"/><path d="M253,132.1a18.6,18.6,0,0,0-6.2-2.4,47.1,47.1,0,0,0-5.9-.6,17,17,0,0,0-5.9,1,20.3,20.3,0,0,0-6,3.2,19.2,19.2,0,0,0-3.8,3.7,23.8,23.8,0,0,0-2.8,4.2,21.7,21.7,0,0,1,3.4-3.6,18.4,18.4,0,0,1,4.1-2.8,14.8,14.8,0,0,1,5.4-1.7,17.5,17.5,0,0,1,5.6.1,22.5,22.5,0,0,1,4.8,1.4,30.8,30.8,0,0,1,4.9,2.5,3.1,3.1,0,0,0,4-.9C255.4,134.9,254.4,133,253,132.1Z" style="fill:#fff"/><path d="M238.6,207.8c-4.9-2.7-10.3-5.4-12.5-10.7s-1.3-12.5,3.1-17.4,16.1-4.5,18.3,3.5c.4,3.2-.5,8.1-4.9,7.2.4-2.3,1.3-5.4-1.3-6.7s-5,0-6.5,1.5a6.9,6.9,0,0,0-1.5,4.4,8.8,8.8,0,0,0,7.1,7.9,10.4,10.4,0,0,0,11.1-5.3,13.6,13.6,0,0,0-2.7-16.1,14.8,14.8,0,0,0-16.9-2.7,17.4,17.4,0,0,0-9.8,17.9A19,19,0,0,0,238.6,207.8Z" style="fill:#fff"/><path d="M213.1,205.6a8.7,8.7,0,0,0-10.1-2.9,6.7,6.7,0,0,0-3.4,3.2c-.7,2-.8,5,1.4,6.4s4.8-.2,6.6-1.6c2.7,3.7-1.3,6.6-4.3,7.5-8.2,1.4-13.6-7.9-11.1-15s8-10.2,14.4-10.3,10.5,3.5,15,6.7a18.9,18.9,0,0,0-21.9-7.8,17.3,17.3,0,0,0-12,16.5,15.1,15.1,0,0,0,9.7,14.1,13.6,13.6,0,0,0,15.7-4.4A10.7,10.7,0,0,0,213.1,205.6Z" style="fill:#fff"/><path d="M192.3,194c1.2-.8,1.7-1.2,1.2-1.2-8.3,3.2-19.1,1-21.9-8.4-1.4-5,.9-11,6.2-12,2.2,0,5.8,1.3,4.8,3.7s-4,4.4-.8,6.5,6.4-.1,7.9-3.4.6-5.3-.6-7.8c-3-5-9.4-6.4-14.7-3.8-8,4.1-9.7,14-5.5,20.8S184.4,198.8,192.3,194Z" style="fill:#fff"/><path d="M215,200.6a2.9,2.9,0,0,0,.7,4.1,58.4,58.4,0,0,0,5.3,3,45.1,45.1,0,0,0,11.1,3.8,35.4,35.4,0,0,0,11.1.4,32.1,32.1,0,0,0,4.8-1,24.9,24.9,0,0,1-4.9.1,32.9,32.9,0,0,1-10.3-2.2,41.2,41.2,0,0,1-9.4-5,47.1,47.1,0,0,1-4.4-3.5A3,3,0,0,0,215,200.6Z" style="fill:#fff"/><path d="M235,219.4a32.1,32.1,0,0,0,5.9-1.1,23.5,23.5,0,0,0,5.4-2.2,27.7,27.7,0,0,0,4.2-2.7,23.2,23.2,0,0,0,3.3-3.4,23.4,23.4,0,0,1-3.8,2.7,26.7,26.7,0,0,1-4.4,1.8,21.8,21.8,0,0,1-5.2,1.1,24.4,24.4,0,0,1-5.4,0,30.6,30.6,0,0,1-4.7-.8,41.8,41.8,0,0,1-5-1.6,3,3,0,0,0-3.6,1.7,2.7,2.7,0,0,0,2,3.5,36.1,36.1,0,0,0,5.9,1Z" style="fill:#fff"/><path d="M252.5,218.9a22.9,22.9,0,0,0,3.5-6.4,10,10,0,0,0,.7-3.1,10.9,10.9,0,0,1-1.3,2.8,18.8,18.8,0,0,1-4.4,5.2,26.6,26.6,0,0,1-5.9,3.8l-3.3,1.4a2.2,2.2,0,0,0-.9,2.7,2,2,0,0,0,2.7,1,24.9,24.9,0,0,0,3.4-2.2A29.2,29.2,0,0,0,252.5,218.9Z" style="fill:#fff"/><path d="M174.5,201.2a28.7,28.7,0,0,0,4.8-1,23.5,23.5,0,0,1-4.8.1,33.5,33.5,0,0,1-10.4-2.2,41.2,41.2,0,0,1-9.4-5c-2.5-1.8-4-3.2-4.4-3.5a2.9,2.9,0,0,0-4,.3,2.9,2.9,0,0,0,.7,4.1,52.4,52.4,0,0,0,5.4,3,42.9,42.9,0,0,0,11,3.8A35.5,35.5,0,0,0,174.5,201.2Z" style="fill:#fff"/><path d="M160.9,208.7a48.5,48.5,0,0,0,5.4,0,30.6,30.6,0,0,0,5.9-1.1,21.8,21.8,0,0,0,5.4-2.2,20.3,20.3,0,0,0,4.2-2.7,23.2,23.2,0,0,0,3.3-3.4,18.7,18.7,0,0,1-3.8,2.7,29.3,29.3,0,0,1-4.3,1.8,23.8,23.8,0,0,1-5.3,1.1,24.4,24.4,0,0,1-5.4,0,30.6,30.6,0,0,1-4.7-.8,41.8,41.8,0,0,1-5-1.6,3,3,0,0,0-3.6,1.7,2.7,2.7,0,0,0,2,3.5A38.8,38.8,0,0,0,160.9,208.7Z" style="fill:#fff"/><path d="M187.3,201.8a13.1,13.1,0,0,0,.8-3.1,17.9,17.9,0,0,1-1.3,2.8,21.2,21.2,0,0,1-4.5,5.2,28.6,28.6,0,0,1-5.8,3.8l-3.3,1.4a2.1,2.1,0,0,0-1,2.7,2,2,0,0,0,2.7,1,24.9,24.9,0,0,0,3.4-2.2,29.2,29.2,0,0,0,5.5-5.2A22.9,22.9,0,0,0,187.3,201.8Z" style="fill:#fff"/><path d="M152.3,184.9a32.5,32.5,0,0,0,4.1,4.3,31.1,31.1,0,0,0,5.4,3.9,38.6,38.6,0,0,0,11.3,4.2,31.8,31.8,0,0,0,5.3.6,27.9,27.9,0,0,1-5.1-1.4,25.7,25.7,0,0,1-4.9-2.2,30.8,30.8,0,0,1-5-3.3,27.2,27.2,0,0,1-4.2-4.1,33.2,33.2,0,0,1-3-4.2,31.9,31.9,0,0,1-2.2-5.1,5,5,0,0,0-1.5-1.7,3.4,3.4,0,0,0-2.2-.3,2.1,2.1,0,0,0-1.5,1.4,3.1,3.1,0,0,0,.1,2.5A31.3,31.3,0,0,0,152.3,184.9Z" style="fill:#fff"/><path d="M158.5,179.1a24.5,24.5,0,0,0,2.3,4.9,25,25,0,0,0,2.8,3.8,17.4,17.4,0,0,0,3.2,3,22.5,22.5,0,0,1-2.5-3.5,21.2,21.2,0,0,1-1.9-4,27.2,27.2,0,0,1-1.3-4.9,30.2,30.2,0,0,1,0-9.5c.5-2.6,1-4.4,1.1-4.8a2.8,2.8,0,0,0-2.1-3.2,2.7,2.7,0,0,0-3.3,2.1c0,.4-.3,2.6-.3,5.6A32.3,32.3,0,0,0,158.5,179.1Z" style="fill:#fff"/><path d="M165.3,173.3a19.9,19.9,0,0,1,2.6-5,20.4,20.4,0,0,1,4-3.8,21.4,21.4,0,0,1,4.4-2.4,28.8,28.8,0,0,1,5.3-1.7,3.2,3.2,0,0,0,2.2-3.5c-.4-1.5-2.4-2.1-4-1.8a19.3,19.3,0,0,0-6.2,2.7,29.8,29.8,0,0,0-4.5,3.8,16.5,16.5,0,0,0-3.5,4.8,23.2,23.2,0,0,0-2,6.5,19.8,19.8,0,0,0-.1,5.4,18.6,18.6,0,0,0,1.1,4.9,17.8,17.8,0,0,1-.3-5A19.4,19.4,0,0,1,165.3,173.3Z" style="fill:#fff"/><path d="M251.5,206.3a18.6,18.6,0,0,0,3.2-.6,24,24,0,0,1-3.3.2,22.9,22.9,0,0,1-6.9-1.1,18.2,18.2,0,0,1-6.2-3.4,16.9,16.9,0,0,1-2.5-2.5,2,2,0,0,0-2.5-.6,1.9,1.9,0,0,0,.2,2.6,19.4,19.4,0,0,0,3.3,2.6,21.8,21.8,0,0,0,7.3,2.8A26.1,26.1,0,0,0,251.5,206.3Z" style="fill:#fff"/><path d="M259.3,221.9a3.8,3.8,0,0,0-3.6-2.4,4.4,4.4,0,0,0-4.1,3,4.7,4.7,0,0,0,2,5.5,5.6,5.6,0,0,1-1.7-3.8,3.9,3.9,0,0,1,2.6-3.6c1.7-.6,4.1.7,3.7,2.8s-.9,1.8-1.9,1.1.9-1.1.5-1.7a1.6,1.6,0,0,0-2.5.5,2.4,2.4,0,0,0,.8,2.6,2.7,2.7,0,0,0,3.1-.1A3.4,3.4,0,0,0,259.3,221.9Z" style="fill:#fff"/><path d="M251.1,158.6a1.9,1.9,0,0,0-1.9-2,2,2,0,0,0-2,2c0,1,.9,3.8,1.8,4.2a1.2,1.2,0,0,0-.7.5c.3-1-1.5-3.3-2.3-4a1.9,1.9,0,0,0-2.7.3,1.9,1.9,0,0,0,.3,2.8c.8.7,3.8,1.9,4.5,1.1v.4a1,1,0,0,0,1,1.1c-1,.3-1.7,3.3-1.7,4.3a1.9,1.9,0,0,0,1.9,2,2,2,0,0,0,2-2c0-1-.9-4.1-2-4.3a1.2,1.2,0,0,0,1-1.1v-.3c.6.9,3.7-.2,4.6-.8a2,2,0,0,0,.6-2.7,2,2,0,0,0-2.7-.6c-.9.5-2.8,2.8-2.6,3.9s-.4-.5-.7-.5S251.1,159.6,251.1,158.6Z" style="fill:#fff"/><path d="M255.7,167.3a2,2,0,0,0-.9-2.7c-.9-.5-4.2-1.1-4.7-.1s2,3.1,2.9,3.7A2,2,0,0,0,255.7,167.3Z" style="fill:#fff"/><path d="M243.7,164.6a2,2,0,0,0-1.1,2.6,2.1,2.1,0,0,0,2.6,1.1c1-.5,3.5-2.6,3.1-3.6S244.7,164.2,243.7,164.6Z" style="fill:#fff"/><path d="M201.5,167.2a2,2,0,0,0-.9-2.7c-.9-.5-4.2-1.2-4.7-.2s2,3.2,2.9,3.7A2.1,2.1,0,0,0,201.5,167.2Z" style="fill:#fff"/><path d="M197.1,169.2c0-1.1-.9-4.2-2-4.3a1.2,1.2,0,0,0,1-1.1c0-.2-.1-.3-.1-.4s3.7-.2,4.6-.7a2.1,2.1,0,0,0,.6-2.8,2,2,0,0,0-2.7-.6c-.9.6-2.8,2.9-2.6,3.9a1.3,1.3,0,0,0-.7-.5c1-.3,1.7-3.3,1.7-4.3a1.9,1.9,0,0,0-1.9-2,2,2,0,0,0-2,2c0,1,.9,3.9,1.8,4.3a1,1,0,0,0-.7.4c.3-1-1.5-3.3-2.3-3.9a1.8,1.8,0,0,0-2.7.3,2,2,0,0,0,.3,2.8c.8.6,3.8,1.8,4.6,1.1s-.1.2-.1.4a1.1,1.1,0,0,0,1,1.1c-1,.3-1.7,3.2-1.7,4.3a2,2,0,1,0,3.9,0Z" style="fill:#fff"/><path d="M194.1,164.5c-.4-1-3.6-.5-4.6-.1a2,2,0,0,0,1.5,3.7C192,167.7,194.6,165.5,194.1,164.5Z" style="fill:#fff"/><path d="M187,224.7a3,3,0,0,0,1.5-4.1,3.2,3.2,0,0,0-3.8-1.7,3.2,3.2,0,0,0-1.6,3.9A2.9,2.9,0,0,0,187,224.7Z" style="fill:#fff"/><path d="M177.2,221.9a2.4,2.4,0,0,0-1.7,2.9,2.3,2.3,0,0,0,2.8,2,2.4,2.4,0,0,0,1.8-3A2.5,2.5,0,0,0,177.2,221.9Z" style="fill:#fff"/><path d="M170.4,223.4a1.9,1.9,0,0,0-1.7,1.9,1.8,1.8,0,0,0,1.8,1.8,1.7,1.7,0,0,0,1.7-1.9A1.9,1.9,0,0,0,170.4,223.4Z" style="fill:#fff"/><path d="M165.5,225.1a1.3,1.3,0,0,0-1-1.4,1.2,1.2,0,0,0-1.4,1,1.2,1.2,0,0,0,1,1.5A1.2,1.2,0,0,0,165.5,225.1Z" style="fill:#fff"/><path d="M159.4,222.7a.9.9,0,0,0-1.2.6,1,1,0,0,0,.5,1.3.9.9,0,0,0,1.2-.7A1,1,0,0,0,159.4,222.7Z" style="fill:#fff"/><path d="M155.2,222a.8.8,0,0,0-.2-1,.7.7,0,0,0-.9.3.6.6,0,0,0,.2,1A.7.7,0,0,0,155.2,222Z" style="fill:#fff"/><path d="M150.7,219a.5.5,0,0,0,.1.6.5.5,0,0,0,.6-.1c.1-.2.1-.5-.1-.6A.5.5,0,0,0,150.7,219Z" style="fill:#fff"/><path d="M147.9,216.4a.3.3,0,0,0,0,.4c.1.2.3.1.5,0a.3.3,0,0,0,0-.4Z" style="fill:#fff"/><path d="M163.3,154.9a2.2,2.2,0,1,0-1.1,4.2,2.5,2.5,0,0,0,2.7-1.5A2.3,2.3,0,0,0,163.3,154.9Z" style="fill:#fff"/><path d="M166.5,152a1.9,1.9,0,0,0-.9-2.3,1.7,1.7,0,0,0-2.4.7,1.8,1.8,0,0,0,.9,2.4A2,2,0,0,0,166.5,152Z" style="fill:#fff"/><path d="M166.8,147.6a1.2,1.2,0,0,0,1.8-.3,1.3,1.3,0,0,0-.3-1.8,1.4,1.4,0,0,0-1.9.3A1.3,1.3,0,0,0,166.8,147.6Z" style="fill:#fff"/><path d="M169.8,142.5a.9.9,0,1,0,1.3,1.3.9.9,0,0,0,0-1.2A.9.9,0,0,0,169.8,142.5Z" style="fill:#fff"/><path d="M173.1,140.1a.7.7,0,0,0-.1,1,.7.7,0,1,0,1.1-.7A.7.7,0,0,0,173.1,140.1Z" style="fill:#fff"/><path d="M176.4,138.6a.4.4,0,0,0-.2.7c.1.2.4.4.6.2a.4.4,0,0,0,.3-.6A.5.5,0,0,0,176.4,138.6Z" style="fill:#fff"/><path d="M179.3,138.1c.1.2.2.3.4.3a.5.5,0,0,0,.2-.4c0-.2-.2-.3-.4-.3Z" style="fill:#fff"/><path d="M182.2,137.6l.2.2c.1,0,.2-.2.2-.3l-.2-.2C182.2,137.3,182.2,137.5,182.2,137.6Z" style="fill:#fff"/><path d="M214.9,182.5a2.2,2.2,0,0,0,1.2,2.8,2.4,2.4,0,0,0,2.8-1.3,2.2,2.2,0,0,0-1.3-2.9A2,2,0,0,0,214.9,182.5Z" style="fill:#fff"/><path d="M209.2,181.4a1.8,1.8,0,0,0,1.4,2,1.8,1.8,0,0,0,2-1.4,1.8,1.8,0,0,0-1.4-2.2A1.8,1.8,0,0,0,209.2,181.4Z" style="fill:#fff"/><path d="M205.6,182.5a1.2,1.2,0,0,0,1.2-1.3,1.3,1.3,0,0,0-1.2-1.4,1.4,1.4,0,0,0-1.3,1.4A1.3,1.3,0,0,0,205.6,182.5Z" style="fill:#fff"/><path d="M201.3,182.5a.8.8,0,0,0,.7-1,1,1,0,0,0-1.1-.8.8.8,0,0,0-.6,1.1A.8.8,0,0,0,201.3,182.5Z" style="fill:#fff"/><path d="M197.6,183.4c.4-.1.5-.5.4-.9a.6.6,0,0,0-.9-.4c-.4.1-.5.5-.4.9S197.3,183.6,197.6,183.4Z" style="fill:#fff"/><path d="M193.9,183.9a.5.5,0,0,0-.1.7.7.7,0,0,0,.7.2.5.5,0,0,0,.1-.7A.4.4,0,0,0,193.9,183.9Z" style="fill:#fff"/><path d="M191.5,186c-.1.1-.2.3,0,.4h.4a.3.3,0,0,0,0-.4C191.8,185.9,191.6,185.8,191.5,186Z" style="fill:#fff"/><path d="M189.5,188c-.1.1-.1.3,0,.3h.3c.1,0,.1-.2,0-.3Z" style="fill:#fff"/><path d="M23.4,97.5c8.6,2.8,16.8-3,18.6-10.9S38.3,68.4,29.4,66.2c-1.4-.4-2-.3-1.7,0,8.1,3.5,14.3,12.7,9.6,21.4-2.6,4.6-8.5,7.2-12.9,4.2-1.6-1.7-3.2-5.1-.8-6.1s5.9-.3,5.2-4-4.6-4.5-8-3.2-4.2,3.3-5.1,5.9C14.3,90,17.8,95.6,23.4,97.5Z" style="fill:#fff"/><path d="M59.8,92.3a46.4,46.4,0,0,0-5.2-10.5,35,35,0,0,0-7.5-8.1A29.3,29.3,0,0,0,43,71a20.8,20.8,0,0,1,3.5,3.3,36.1,36.1,0,0,1,5.8,8.9,42.5,42.5,0,0,1,3,10.2c.5,3,.6,5.2.7,5.5a2.9,2.9,0,0,0,3,2.7,2.8,2.8,0,0,0,2.4-3.4A42.3,42.3,0,0,0,59.8,92.3Z" style="fill:#fff"/><path d="M53.2,70.8a24.3,24.3,0,0,0-5.3-2.3,20.3,20.3,0,0,0-4.9-1,20.4,20.4,0,0,0-4.8,0,25.7,25.7,0,0,1,4.6.8,22.7,22.7,0,0,1,4.4,1.8A26.6,26.6,0,0,1,51.7,73a34.1,34.1,0,0,1,3.8,3.8,42.1,42.1,0,0,1,2.8,4c1.4,2.4,2.2,4.3,2.4,4.6a2.9,2.9,0,0,0,3.7,1.4,2.8,2.8,0,0,0,1.1-3.9A32.7,32.7,0,0,0,62,78a45.3,45.3,0,0,0-3.8-3.8A24.5,24.5,0,0,0,53.2,70.8Z" style="fill:#fff"/><path d="M38.4,64.2a12,12,0,0,0-2.7,1.7,9.8,9.8,0,0,1,3-1.1,20.5,20.5,0,0,1,6.8-.6,31.1,31.1,0,0,1,6.8,1.5L55.6,67A2,2,0,0,0,57,63.2l-3.9-.9a32.6,32.6,0,0,0-7.7-.1A21.5,21.5,0,0,0,38.4,64.2Z" style="fill:#fff"/><path d="M44.6,77.8a32.5,32.5,0,0,1,1.9,5,38.7,38.7,0,0,1,1.3,5.9,29.1,29.1,0,0,1,0,5.9,24.5,24.5,0,0,1-.9,5.1,27.1,27.1,0,0,1-2,5.2,3.3,3.3,0,0,0-.1,2.2,2.9,2.9,0,0,0,1.3,1.8,2.2,2.2,0,0,0,2.1,0,3.5,3.5,0,0,0,1.7-1.7,36.4,36.4,0,0,0,1.4-6.4,28.4,28.4,0,0,0,.1-5.9,30.5,30.5,0,0,0-1.1-6.5,36.8,36.8,0,0,0-5-10.9A28,28,0,0,0,42,73.2,30.7,30.7,0,0,1,44.6,77.8Z" style="fill:#fff"/><path d="M33.7,106c-2.1,1.5-3.8,2.4-4.1,2.6a2.7,2.7,0,0,0-.8,3.7,2.7,2.7,0,0,0,3.8.9,46.8,46.8,0,0,0,4.2-3.8,34.2,34.2,0,0,0,6-8.7,29.3,29.3,0,0,0,1.8-5.2,28.7,28.7,0,0,0,.7-4.6,19.6,19.6,0,0,0-.1-4.4,18.3,18.3,0,0,1-.7,4.3A20.7,20.7,0,0,1,43,94.9a28.2,28.2,0,0,1-2.6,4.4A30.3,30.3,0,0,1,33.7,106Z" style="fill:#fff"/><path d="M10.8,102.5A18.4,18.4,0,0,0,17,105a33,33,0,0,0,6,.5,19.5,19.5,0,0,0,5.8-.9,22.9,22.9,0,0,0,6-3.2,23.3,23.3,0,0,0,3.9-3.7,20.7,20.7,0,0,0,2.7-4.3A19.8,19.8,0,0,1,38,97.1a18.4,18.4,0,0,1-4.1,2.8,20,20,0,0,1-5.4,1.7,20.9,20.9,0,0,1-5.6-.1,26.2,26.2,0,0,1-4.7-1.4,42.4,42.4,0,0,1-5-2.6,3.2,3.2,0,0,0-4,.9C8.4,99.7,9.4,101.6,10.8,102.5Z" style="fill:#fff"/><path d="M27.5,26.8c4.9,2.7,10.2,5.3,12.4,10.7S41.3,50,36.8,54.9s-16,4.4-18.3-3.6c-.4-3.1.5-8,4.9-7.1-.4,2.2-1.3,5.3,1.4,6.7s4.9,0,6.5-1.5a7.1,7.1,0,0,0,1.4-4.5,8.8,8.8,0,0,0-7-7.9,10.6,10.6,0,0,0-11.2,5.4,13.5,13.5,0,0,0,2.7,16,14.8,14.8,0,0,0,16.9,2.7A17.5,17.5,0,0,0,44,43.3,19,19,0,0,0,27.5,26.8Z" style="fill:#fff"/><path d="M52.9,28.9a8.7,8.7,0,0,0,10.1,3,6.7,6.7,0,0,0,3.4-3.2c.7-2.1.8-5.1-1.4-6.5s-4.8.3-6.6,1.6c-2.7-3.6,1.3-6.5,4.4-7.4,8.2-1.5,13.5,7.8,11,15s-8,10.2-14.4,10.2-10.5-3.4-15-6.7a18.9,18.9,0,0,0,22,7.9A17.5,17.5,0,0,0,78.3,26.3a15,15,0,0,0-9.7-14.2A13.6,13.6,0,0,0,53,16.5,10.5,10.5,0,0,0,52.9,28.9Z" style="fill:#fff"/><path d="M73.7,40.5c-1.2.8-1.6,1.3-1.2,1.2,8.3-3.2,19.1-1,22,8.4,1.4,5.1-1,11.1-6.2,12.1-2.3-.1-5.9-1.3-4.8-3.7s3.9-4.5.8-6.6-6.5.2-8,3.4-.6,5.4.6,7.8c3,5,9.5,6.4,14.7,3.8,8.1-4,9.8-14,5.5-20.8S81.6,35.8,73.7,40.5Z" style="fill:#fff"/><path d="M51,33.9a2.7,2.7,0,0,0-.7-4A33.5,33.5,0,0,0,45,26.8a41.8,41.8,0,0,0-11-3.7,39.3,39.3,0,0,0-11.1-.5A25.2,25.2,0,0,0,18,23.7a20.4,20.4,0,0,1,4.9-.2,32.9,32.9,0,0,1,10.3,2.2,42.1,42.1,0,0,1,9.5,5.1c2.4,1.7,4,3.2,4.3,3.4A2.8,2.8,0,0,0,51,33.9Z" style="fill:#fff"/><path d="M31.1,15.2a31.3,31.3,0,0,0-6,1,29,29,0,0,0-5.4,2.2,29.1,29.1,0,0,0-4.1,2.8,12.6,12.6,0,0,0-3.3,3.4A13.2,13.2,0,0,1,16,21.9,25.3,25.3,0,0,1,20.4,20a27.6,27.6,0,0,1,5.3-1.1,32.5,32.5,0,0,1,5.4,0l4.7.8c2.7.7,4.6,1.5,5,1.6a2.9,2.9,0,0,0,3.6-1.6,2.9,2.9,0,0,0-2-3.6,32.3,32.3,0,0,0-5.9-.9A32.4,32.4,0,0,0,31.1,15.2Z" style="fill:#fff"/><path d="M13.6,15.7A21.8,21.8,0,0,0,10,22a15.8,15.8,0,0,0-.7,3.2,10.6,10.6,0,0,1,1.3-2.9A20.3,20.3,0,0,1,15,17.1a28.3,28.3,0,0,1,5.9-3.7,35.7,35.7,0,0,1,3.3-1.5,2,2,0,0,0,.9-2.6,2,2,0,0,0-2.7-1.1c-.2.2-1.6.9-3.3,2.2A24.8,24.8,0,0,0,13.6,15.7Z" style="fill:#fff"/><path d="M91.5,33.3a25.2,25.2,0,0,0-4.8,1.1,20.4,20.4,0,0,1,4.9-.2,32.9,32.9,0,0,1,10.3,2.2,41.3,41.3,0,0,1,9.4,5.1c2.5,1.7,4.1,3.2,4.4,3.4a2.8,2.8,0,0,0,4-.3,2.7,2.7,0,0,0-.7-4,40,40,0,0,0-5.3-3.1,41.3,41.3,0,0,0-11.1-3.7A39.1,39.1,0,0,0,91.5,33.3Z" style="fill:#fff"/><path d="M105.1,25.9a32.4,32.4,0,0,0-5.4,0,31.7,31.7,0,0,0-5.9,1,29,29,0,0,0-5.4,2.2,38.2,38.2,0,0,0-4.2,2.8,18.5,18.5,0,0,0-3.3,3.4,17.8,17.8,0,0,1,3.8-2.7,20.1,20.1,0,0,1,4.4-1.9,28.2,28.2,0,0,1,5.2-1.1,32.4,32.4,0,0,1,5.4,0l4.7.8a30,30,0,0,1,5.1,1.7,2.9,2.9,0,0,0,3.5-1.7,2.8,2.8,0,0,0-2-3.6A30.6,30.6,0,0,0,105.1,25.9Z" style="fill:#fff"/><path d="M78.7,32.7a10.2,10.2,0,0,0-.7,3.2A10.6,10.6,0,0,1,79.3,33a20.3,20.3,0,0,1,4.4-5.2,25.9,25.9,0,0,1,5.9-3.7c1.7-.9,3-1.3,3.3-1.5a2,2,0,0,0,.9-2.6,2,2,0,0,0-2.7-1.1c-.3.2-1.6.9-3.4,2.2a33.8,33.8,0,0,0-5.5,5.3A21.2,21.2,0,0,0,78.7,32.7Z" style="fill:#fff"/><path d="M113.7,49.6a32.5,32.5,0,0,0-4.1-4.3,33.9,33.9,0,0,0-5.3-3.8A36.8,36.8,0,0,0,93,37.3a28,28,0,0,0-5.4-.7A27.9,27.9,0,0,1,92.7,38a50.1,50.1,0,0,1,4.9,2.2,30.8,30.8,0,0,1,5,3.3,33.8,33.8,0,0,1,4.3,4.1,32.5,32.5,0,0,1,2.9,4.3,40.1,40.1,0,0,1,2.3,5,2.8,2.8,0,0,0,1.5,1.7,2.6,2.6,0,0,0,2.1.3,2.5,2.5,0,0,0,1.6-1.4,4,4,0,0,0-.1-2.4A31.1,31.1,0,0,0,113.7,49.6Z" style="fill:#fff"/><path d="M109.2,71.5a27.3,27.3,0,0,0,.3-5.6,31.5,31.5,0,0,0-1.9-10.4,33.1,33.1,0,0,0-2.4-5,29.6,29.6,0,0,0-2.7-3.7,15.3,15.3,0,0,0-3.3-3,12.9,12.9,0,0,1,2.6,3.5,38,38,0,0,1,1.9,4,25.1,25.1,0,0,1,1.2,4.9,29.5,29.5,0,0,1,0,9.4,28.8,28.8,0,0,1-1.1,4.8,2.8,2.8,0,0,0,2.1,3.2A2.7,2.7,0,0,0,109.2,71.5Z" style="fill:#fff"/><path d="M100.7,61.2a14.1,14.1,0,0,1-2.6,5,18.5,18.5,0,0,1-4,3.9,27.6,27.6,0,0,1-4.4,2.4,36.7,36.7,0,0,1-5.3,1.7,2.9,2.9,0,0,0-2.1,3.4c.3,1.5,2.3,2.2,4,1.8a19.2,19.2,0,0,0,6.1-2.6A49,49,0,0,0,97,72.9a16.7,16.7,0,0,0,3.4-4.8,20.3,20.3,0,0,0,2-6.5,19.1,19.1,0,0,0,.1-5.3,18.7,18.7,0,0,0-1.1-5,17.8,17.8,0,0,1,.3,5A18.6,18.6,0,0,1,100.7,61.2Z" style="fill:#fff"/><path d="M13,28.2a25.6,25.6,0,0,0-3.2.7,24.1,24.1,0,0,1,10.3.9,18.6,18.6,0,0,1,6.1,3.3,28.1,28.1,0,0,1,2.6,2.6,1.9,1.9,0,0,0,2.4.5c.7-.5.6-1.7-.2-2.6A19.4,19.4,0,0,0,27.7,31a19.1,19.1,0,0,0-7.3-2.7A23.1,23.1,0,0,0,13,28.2Z" style="fill:#fff"/><ellipse cx="157.9" cy="117.5" rx="6.4" ry="6.8" style="fill:#fff"/><path d="M176.5,112.1a5.4,5.4,0,1,0,5.2,5.4A5.3,5.3,0,0,0,176.5,112.1Z" style="fill:#fff"/><path d="M192.8,121.6a4.1,4.1,0,0,0,0-8.1,4.1,4.1,0,0,0,0,8.1Z" style="fill:#fff"/><ellipse cx="206.3" cy="117.6" rx="2.7" ry="2.8" style="fill:#fff"/><ellipse cx="218.2" cy="117.6" rx="2" ry="2.2" style="fill:#fff"/><path d="M230.3,117.6a1.6,1.6,0,0,0-1.5-1.6,1.6,1.6,0,0,0,0,3.2A1.6,1.6,0,0,0,230.3,117.6Z" style="fill:#fff"/><path d="M239.2,117.6a.9.9,0,1,0-1.8,0,.9.9,0,1,0,1.8,0Z" style="fill:#fff"/><path d="M246.9,116.9a.7.7,0,0,0-.7.7.7.7,0,0,0,.7.6.6.6,0,0,0,.6-.6A.7.7,0,0,0,246.9,116.9Z" style="fill:#fff"/><ellipse cx="109.1" cy="117.5" rx="6.4" ry="6.8" style="fill:#fff"/><path d="M95.7,117.5a5.2,5.2,0,1,0-5.2,5.4A5.3,5.3,0,0,0,95.7,117.5Z" style="fill:#fff"/><path d="M74.3,113.4a4.1,4.1,0,1,0,3.8,4A3.9,3.9,0,0,0,74.3,113.4Z" style="fill:#fff"/><ellipse cx="60.7" cy="117.4" rx="2.7" ry="2.8" style="fill:#fff"/><path d="M46.8,117.4a2.1,2.1,0,1,0,2-2.2A2.1,2.1,0,0,0,46.8,117.4Z" style="fill:#fff"/><path d="M36.7,117.4a1.6,1.6,0,0,0,1.5,1.6,1.6,1.6,0,0,0,0-3.2A1.6,1.6,0,0,0,36.7,117.4Z" style="fill:#fff"/><path d="M27.8,117.4a.9.9,0,1,0,1.8,0,.9.9,0,1,0-1.8,0Z" style="fill:#fff"/><path d="M19.5,117.4a.7.7,0,0,0,.6.7.7.7,0,0,0,.7-.7.7.7,0,0,0-.7-.6A.6.6,0,0,0,19.5,117.4Z" style="fill:#fff"/><path d="M21.7,73.3a2,2,0,0,0-.9-2.7c-.9-.5-4.2-1.1-4.7-.1s2,3.1,2.9,3.7A2,2,0,0,0,21.7,73.3Z" style="fill:#fff"/><path d="M8.6,73.2a2.1,2.1,0,0,0,2.6,1.1c1-.5,3.5-2.6,3.1-3.6s-3.6-.5-4.6-.1A2,2,0,0,0,8.6,73.2Z" style="fill:#fff"/><path d="M9.3,65.6a1.9,1.9,0,0,0,.3,2.8c.8.7,3.8,1.9,4.5,1.1v.4a1,1,0,0,0,1,1.1c-1,.3-1.7,3.3-1.7,4.3a1.9,1.9,0,0,0,1.9,2,2,2,0,0,0,2-2c0-1-.9-4.1-2-4.3a1.2,1.2,0,0,0,1-1.1c0-.1-.1-.2-.1-.3s3.7-.2,4.6-.8a2,2,0,0,0,.6-2.7,2,2,0,0,0-2.7-.6c-.9.5-2.8,2.8-2.6,3.9s-.4-.5-.7-.5,1.7-3.3,1.7-4.3a1.9,1.9,0,0,0-1.9-2,2,2,0,0,0-2,2c0,1,.9,3.8,1.8,4.2a1.2,1.2,0,0,0-.7.5c.3-1-1.5-3.3-2.3-4A1.9,1.9,0,0,0,9.3,65.6Z" style="fill:#fff"/><path d="M74.6,71.5c-.9-.5-4.2-1.2-4.7-.2s2,3.2,2.9,3.7a2.1,2.1,0,0,0,2.7-.8A2,2,0,0,0,74.6,71.5Z" style="fill:#fff"/><path d="M62.4,74A2.1,2.1,0,0,0,65,75.1c1-.4,3.6-2.6,3.1-3.6s-3.6-.5-4.6-.1A2.1,2.1,0,0,0,62.4,74Z" style="fill:#fff"/><path d="M63.1,66.5a2,2,0,0,0,.3,2.8c.8.6,3.8,1.8,4.6,1.1s-.1.2-.1.4a1.1,1.1,0,0,0,1,1.1c-1,.2-1.7,3.2-1.7,4.3a2,2,0,1,0,3.9,0c0-1.1-.9-4.2-2-4.3a1.2,1.2,0,0,0,1-1.1c0-.2-.1-.3-.1-.4s3.7-.2,4.6-.7a2.1,2.1,0,0,0,.6-2.8,2,2,0,0,0-2.7-.6c-.9.6-2.8,2.9-2.6,3.9a1.3,1.3,0,0,0-.7-.5c1-.3,1.7-3.3,1.7-4.3a1.9,1.9,0,0,0-1.9-2,2,2,0,0,0-2,2c0,1,.9,3.9,1.8,4.3a1,1,0,0,0-.7.4c.3-1-1.5-3.3-2.3-3.9A1.8,1.8,0,0,0,63.1,66.5Z" style="fill:#fff"/><path d="M148.9,98c-.5.9,2,3.1,2.9,3.7a2,2,0,1,0,1.8-3.6C152.7,97.6,149.4,97,148.9,98Z" style="fill:#fff"/><path d="M144.8,92.8a1.9,1.9,0,0,0-2.7.3,1.9,1.9,0,0,0,.3,2.8c.8.7,3.8,1.9,4.6,1.1a.8.8,0,0,0-.1.4,1,1,0,0,0,1,1.1c-1,.3-1.7,3.3-1.7,4.3a2,2,0,1,0,3.9,0c0-1-.9-4.1-2-4.3a1.1,1.1,0,0,0,1-1.1c0-.1-.1-.2-.1-.3s3.7-.2,4.6-.8a1.9,1.9,0,0,0,.6-2.7,2,2,0,0,0-2.7-.6c-.9.5-2.8,2.8-2.6,3.9a.8.8,0,0,0-.7-.5c1-.3,1.7-3.3,1.7-4.3a1.9,1.9,0,0,0-1.9-2,2,2,0,0,0-2,2c0,1,.9,3.8,1.8,4.2a1.2,1.2,0,0,0-.7.5C147.4,95.8,145.6,93.5,144.8,92.8Z" style="fill:#fff"/><path d="M141.4,100.7a2.1,2.1,0,0,0,2.6,1.1c1-.5,3.6-2.6,3.1-3.6s-3.6-.5-4.6-.1A2,2,0,0,0,141.4,100.7Z" style="fill:#fff"/><path d="M124.5,100.8a2,2,0,0,0-.9-2.7c-.9-.5-4.2-1.1-4.7-.1s2,3.1,2.9,3.7A2,2,0,0,0,124.5,100.8Z" style="fill:#fff"/><path d="M111.4,100.7a2.1,2.1,0,0,0,2.6,1.1c1-.5,3.6-2.6,3.1-3.6s-3.6-.5-4.6-.1A2,2,0,0,0,111.4,100.7Z" style="fill:#fff"/><path d="M114.8,92.8a1.9,1.9,0,0,0-2.7.3,1.9,1.9,0,0,0,.3,2.8c.8.7,3.8,1.9,4.6,1.1a.8.8,0,0,0-.1.4,1,1,0,0,0,1,1.1c-1,.3-1.7,3.3-1.7,4.3a2,2,0,1,0,3.9,0c0-1-.9-4.1-2-4.3a1.1,1.1,0,0,0,1-1.1c0-.1-.1-.2-.1-.3s3.7-.2,4.6-.8a1.9,1.9,0,0,0,.6-2.7,2,2,0,0,0-2.7-.6c-.9.5-2.8,2.8-2.6,3.9a.8.8,0,0,0-.7-.5c1-.3,1.7-3.3,1.7-4.3a1.9,1.9,0,0,0-1.9-2,2,2,0,0,0-2,2c0,1,.9,3.8,1.8,4.2a1.2,1.2,0,0,0-.7.5C117.4,95.8,115.6,93.5,114.8,92.8Z" style="fill:#fff"/><path d="M151.8,140.7a2,2,0,0,0,1.8-3.6c-.9-.5-4.2-1.1-4.7-.1S150.9,140.1,151.8,140.7Z" style="fill:#fff"/><path d="M142.5,137.1a2,2,0,0,0-1.1,2.6,2.1,2.1,0,0,0,2.6,1.1c1-.5,3.6-2.6,3.1-3.6S143.5,136.7,142.5,137.1Z" style="fill:#fff"/><path d="M148.1,143.8a2,2,0,0,0,2-2c0-1-.9-4.1-2-4.3a1.1,1.1,0,0,0,1-1.1v-.3c.6.9,3.7-.2,4.6-.8a1.9,1.9,0,0,0,.6-2.7,2,2,0,0,0-2.7-.6c-.9.5-2.8,2.8-2.6,3.9a.8.8,0,0,0-.7-.5c1-.3,1.7-3.3,1.7-4.3a1.9,1.9,0,0,0-1.9-2,2,2,0,0,0-2,2c0,1,.9,3.8,1.8,4.2a1.2,1.2,0,0,0-.7.5c.3-1-1.5-3.3-2.3-4a1.9,1.9,0,0,0-2.7.3,1.9,1.9,0,0,0,.3,2.8c.8.7,3.8,1.9,4.6,1.1a.8.8,0,0,0-.1.4,1,1,0,0,0,1,1.1c-1,.3-1.7,3.3-1.7,4.3A2,2,0,0,0,148.1,143.8Z" style="fill:#fff"/><path d="M83.6,87.1c-.6-.3-2.9-.8-3.3-.1s1.4,2.2,2.1,2.6a1.3,1.3,0,0,0,1.8-.6A1.4,1.4,0,0,0,83.6,87.1Z" style="fill:#fff"/><path d="M79.1,87.2c-.3-.8-2.6-.4-3.2-.1a1.4,1.4,0,0,0,1,2.6C77.6,89.4,79.4,87.9,79.1,87.2Z" style="fill:#fff"/><path d="M77.5,83.4a1.3,1.3,0,0,0-1.9.2,1.4,1.4,0,0,0,.2,2c.6.5,2.7,1.3,3.2.8s-.1.1-.1.2a.7.7,0,0,0,.8.8c-.8.2-1.3,2.3-1.3,3a1.4,1.4,0,0,0,1.4,1.4,1.4,1.4,0,0,0,1.4-1.4c0-.7-.7-2.9-1.4-3s.6-.4.6-.8v-.2c.4.6,2.6-.1,3.2-.5A1.4,1.4,0,0,0,84,84a1.3,1.3,0,0,0-1.9-.5c-.6.4-2,2.1-1.7,2.8a.7.7,0,0,0-.6-.4c.7-.2,1.3-2.3,1.3-3a1.4,1.4,0,0,0-1.4-1.4,1.4,1.4,0,0,0-1.4,1.4c0,.7.6,2.7,1.3,3l-.6.3C79.3,85.6,78,83.9,77.5,83.4Z" style="fill:#fff"/><path d="M106.6,21a1.6,1.6,0,0,0-.6-1.9c-.7-.3-3-.8-3.3-.1s1.3,2.2,2,2.6A1.5,1.5,0,0,0,106.6,21Z" style="fill:#fff"/><path d="M99.2,21.7c.7-.3,2.5-1.8,2.2-2.5s-2.5-.4-3.2-.1a1.4,1.4,0,0,0-.7,1.8A1.3,1.3,0,0,0,99.2,21.7Z" style="fill:#fff"/><path d="M101.3,18.4a.3.3,0,0,0-.1.2.8.8,0,0,0,.8.8c-.7.2-1.2,2.3-1.2,3a1.3,1.3,0,0,0,1.3,1.4,1.4,1.4,0,0,0,1.4-1.4c0-.7-.7-2.9-1.4-3a.8.8,0,0,0,.7-.8v-.2c.5.6,2.6-.1,3.2-.5a1.3,1.3,0,0,0,.4-1.9,1.3,1.3,0,0,0-1.8-.5c-.7.4-2.1,2.1-1.8,2.8a.7.7,0,0,0-.5-.4c.7-.2,1.2-2.3,1.2-3a1.4,1.4,0,0,0-1.4-1.4,1.3,1.3,0,0,0-1.3,1.4c0,.7.6,2.7,1.3,3a.6.6,0,0,0-.6.3c.3-.6-1-2.3-1.6-2.8a1.3,1.3,0,0,0-1.9.2,1.4,1.4,0,0,0,.2,2C98.7,18.1,100.8,18.9,101.3,18.4Z" style="fill:#fff"/><path d="M149,32.1c-.7-.3-3-.8-3.3-.1s1.3,2.2,2,2.6a1.5,1.5,0,0,0,1.9-.6A1.6,1.6,0,0,0,149,32.1Z" style="fill:#fff"/><path d="M144.4,32.2c-.3-.8-2.5-.4-3.2-.1a1.4,1.4,0,0,0-.7,1.8,1.3,1.3,0,0,0,1.7.8C142.9,34.4,144.7,32.9,144.4,32.2Z" style="fill:#fff"/><path d="M143.7,27.9c0,.7.6,2.7,1.3,3a.6.6,0,0,0-.6.3c.3-.6-1-2.3-1.6-2.8a1.3,1.3,0,0,0-1.9.2,1.4,1.4,0,0,0,.2,2c.6.5,2.7,1.3,3.2.8a.3.3,0,0,0-.1.2.8.8,0,0,0,.8.8c-.7.2-1.2,2.3-1.2,3a1.3,1.3,0,0,0,1.3,1.4,1.4,1.4,0,0,0,1.4-1.4c0-.7-.7-2.9-1.4-3a.8.8,0,0,0,.7-.8v-.2c.5.6,2.6-.1,3.2-.5a1.3,1.3,0,0,0,.4-1.9,1.3,1.3,0,0,0-1.8-.5c-.7.4-2.1,2.1-1.8,2.8a.7.7,0,0,0-.5-.4c.7-.2,1.2-2.3,1.2-3a1.4,1.4,0,0,0-1.4-1.4A1.3,1.3,0,0,0,143.7,27.9Z" style="fill:#fff"/><path d="M124.6,34a1.6,1.6,0,0,0-.6-1.9c-.7-.3-3-.8-3.3-.1s1.3,2.2,2,2.6A1.5,1.5,0,0,0,124.6,34Z" style="fill:#fff"/><path d="M117.2,34.7c.7-.3,2.5-1.8,2.2-2.5s-2.5-.4-3.2-.1a1.4,1.4,0,0,0-.7,1.8A1.3,1.3,0,0,0,117.2,34.7Z" style="fill:#fff"/><path d="M119.3,31.4a.3.3,0,0,0-.1.2.8.8,0,0,0,.8.8c-.7.2-1.2,2.3-1.2,3a1.3,1.3,0,0,0,1.3,1.4,1.4,1.4,0,0,0,1.4-1.4c0-.7-.7-2.9-1.4-3a.8.8,0,0,0,.7-.8v-.2c.5.6,2.6-.1,3.2-.5a1.3,1.3,0,0,0,.4-1.9,1.3,1.3,0,0,0-1.8-.5c-.7.4-2.1,2.1-1.8,2.8a.7.7,0,0,0-.5-.4c.7-.2,1.2-2.3,1.2-3a1.4,1.4,0,0,0-1.4-1.4,1.3,1.3,0,0,0-1.3,1.4c0,.7.6,2.7,1.3,3a.6.6,0,0,0-.6.3c.3-.6-1-2.3-1.6-2.8a1.3,1.3,0,0,0-1.9.2,1.4,1.4,0,0,0,.2,2C116.7,31.1,118.8,31.9,119.3,31.4Z" style="fill:#fff"/><path d="M149,203.1c-.7-.3-3-.8-3.3-.1s1.3,2.2,2,2.6a1.5,1.5,0,0,0,1.9-.6A1.6,1.6,0,0,0,149,203.1Z" style="fill:#fff"/><path d="M145.1,203.4a.8.8,0,0,0,.7-.8v-.2c.5.6,2.6-.1,3.2-.5a1.3,1.3,0,0,0,.4-1.9,1.3,1.3,0,0,0-1.8-.5c-.7.4-2.1,2.1-1.8,2.8a.7.7,0,0,0-.5-.4c.7-.2,1.2-2.3,1.2-3a1.4,1.4,0,0,0-1.4-1.4,1.3,1.3,0,0,0-1.3,1.4c0,.7.6,2.7,1.3,3a.6.6,0,0,0-.6.3c.3-.6-1-2.3-1.6-2.8a1.3,1.3,0,0,0-1.9.2,1.4,1.4,0,0,0,.2,2c.6.5,2.7,1.3,3.2.8v.2a.8.8,0,0,0,.8.8c-.7.2-1.2,2.3-1.2,3a1.3,1.3,0,0,0,1.3,1.4,1.4,1.4,0,0,0,1.4-1.4C146.5,205.7,145.8,203.5,145.1,203.4Z" style="fill:#fff"/><path d="M142.2,205.7c.7-.3,2.5-1.8,2.2-2.5s-2.5-.4-3.2-.1a1.4,1.4,0,0,0-.7,1.8A1.3,1.3,0,0,0,142.2,205.7Z" style="fill:#fff"/><path d="M206.3,127.1c-.7-.3-2.9-.8-3.3-.1s1.4,2.2,2,2.6a1.4,1.4,0,0,0,1.3-2.5Z" style="fill:#fff"/><path d="M202.5,131.8a1.3,1.3,0,0,0,1.3-1.4c0-.7-.6-2.9-1.4-3a.8.8,0,0,0,.7-.8v-.2c.4.6,2.5-.1,3.2-.5a1.4,1.4,0,0,0,.4-1.9,1.4,1.4,0,0,0-1.9-.5c-.6.4-2,2.1-1.8,2.8a.7.7,0,0,0-.5-.4c.7-.2,1.2-2.3,1.2-3a1.3,1.3,0,0,0-1.3-1.4,1.4,1.4,0,0,0-1.4,1.4c0,.7.6,2.7,1.3,3a.6.6,0,0,0-.6.3c.3-.6-1-2.3-1.6-2.8a1.3,1.3,0,0,0-1.9.2,1.7,1.7,0,0,0,.2,2c.6.5,2.7,1.3,3.2.8v.2a.7.7,0,0,0,.7.8c-.7.2-1.2,2.3-1.2,3A1.4,1.4,0,0,0,202.5,131.8Z" style="fill:#fff"/><path d="M199.6,129.7c.7-.3,2.5-1.8,2.2-2.5s-2.6-.4-3.3-.1a1.4,1.4,0,0,0-.7,1.8A1.4,1.4,0,0,0,199.6,129.7Z" style="fill:#fff"/><path d="M206.9,111a1.5,1.5,0,0,0-.6-1.9c-.7-.3-2.9-.8-3.3-.1s1.4,2.2,2,2.6A1.5,1.5,0,0,0,206.9,111Z" style="fill:#fff"/><path d="M198.5,109.1a1.4,1.4,0,0,0-.7,1.8,1.4,1.4,0,0,0,1.8.8c.7-.3,2.5-1.8,2.2-2.5S199.2,108.8,198.5,109.1Z" style="fill:#fff"/><path d="M200.1,105.4a1.3,1.3,0,0,0-1.9.2,1.7,1.7,0,0,0,.2,2c.6.5,2.7,1.3,3.2.8v.2a.7.7,0,0,0,.7.8c-.7.2-1.2,2.3-1.2,3a1.4,1.4,0,0,0,1.4,1.4,1.3,1.3,0,0,0,1.3-1.4c0-.7-.6-2.9-1.4-3a.8.8,0,0,0,.7-.8v-.2c.4.6,2.5-.1,3.2-.5a1.4,1.4,0,0,0,.4-1.9,1.4,1.4,0,0,0-1.9-.5c-.6.4-2,2.1-1.8,2.8a.7.7,0,0,0-.5-.4c.7-.2,1.2-2.3,1.2-3a1.3,1.3,0,0,0-1.3-1.4,1.4,1.4,0,0,0-1.4,1.4c0,.7.6,2.7,1.3,3a.6.6,0,0,0-.6.3C202,107.6,200.7,105.9,200.1,105.4Z" style="fill:#fff"/><path d="M63,129.6a1.4,1.4,0,0,0,1.3-2.5c-.7-.3-2.9-.8-3.3-.1S62.4,129.2,63,129.6Z" style="fill:#fff"/><path d="M60.4,127.4a.8.8,0,0,0,.7-.8v-.2c.4.6,2.5-.1,3.2-.5a1.4,1.4,0,0,0,.4-1.9,1.4,1.4,0,0,0-1.9-.5c-.6.4-2,2.1-1.8,2.8a.7.7,0,0,0-.5-.4c.7-.2,1.2-2.3,1.2-3a1.3,1.3,0,0,0-1.3-1.4,1.4,1.4,0,0,0-1.4,1.4c0,.7.6,2.7,1.3,3a.6.6,0,0,0-.6.3c.3-.6-1-2.3-1.6-2.8a1.3,1.3,0,0,0-1.9.2,1.7,1.7,0,0,0,.2,2c.6.5,2.7,1.3,3.2.8v.2a.7.7,0,0,0,.7.8c-.7.2-1.2,2.3-1.2,3a1.4,1.4,0,0,0,1.4,1.4,1.3,1.3,0,0,0,1.3-1.4C61.8,129.7,61.2,127.5,60.4,127.4Z" style="fill:#fff"/><path d="M55.8,128.9a1.4,1.4,0,0,0,1.8.8c.7-.3,2.5-1.8,2.2-2.5s-2.6-.4-3.3-.1A1.4,1.4,0,0,0,55.8,128.9Z" style="fill:#fff"/><path d="M61.7,104.9a1.3,1.3,0,0,0-1.3-1.4,1.4,1.4,0,0,0-1.4,1.4c0,.7.6,2.7,1.3,3a.6.6,0,0,0-.6.3c.3-.6-1-2.3-1.6-2.8a1.3,1.3,0,0,0-1.9.2,1.7,1.7,0,0,0,.2,2c.6.5,2.7,1.3,3.2.8v.2a.7.7,0,0,0,.7.8c-.7.2-1.2,2.3-1.2,3a1.4,1.4,0,0,0,1.4,1.4,1.3,1.3,0,0,0,1.3-1.4c0-.7-.6-2.9-1.4-3a.8.8,0,0,0,.7-.8v-.2c.4.6,2.5-.1,3.2-.5a1.4,1.4,0,0,0,.4-1.9,1.4,1.4,0,0,0-1.9-.5c-.6.4-2,2.1-1.8,2.8a.7.7,0,0,0-.5-.4C61.2,107.7,61.7,105.6,61.7,104.9Z" style="fill:#fff"/><path d="M64.3,109.1c-.7-.3-2.9-.8-3.3-.1s1.4,2.2,2,2.6a1.4,1.4,0,0,0,1.3-2.5Z" style="fill:#fff"/><path d="M57.6,111.7c.7-.3,2.5-1.8,2.2-2.5s-2.6-.4-3.3-.1a1.4,1.4,0,0,0-.7,1.8A1.4,1.4,0,0,0,57.6,111.7Z" style="fill:#fff"/><path d="M124,203.1c-.7-.3-3-.8-3.3-.1s1.3,2.2,2,2.6a1.5,1.5,0,0,0,1.9-.6A1.6,1.6,0,0,0,124,203.1Z" style="fill:#fff"/><path d="M120.1,203.4a.8.8,0,0,0,.7-.8v-.2c.5.6,2.6-.1,3.2-.5a1.3,1.3,0,0,0,.4-1.9,1.3,1.3,0,0,0-1.8-.5c-.7.4-2.1,2.1-1.8,2.8a.7.7,0,0,0-.5-.4c.7-.2,1.2-2.3,1.2-3a1.4,1.4,0,0,0-1.4-1.4,1.3,1.3,0,0,0-1.3,1.4c0,.7.6,2.7,1.3,3a.6.6,0,0,0-.6.3c.3-.6-1-2.3-1.6-2.8a1.3,1.3,0,0,0-1.9.2,1.4,1.4,0,0,0,.2,2c.6.5,2.7,1.3,3.2.8v.2a.8.8,0,0,0,.8.8c-.7.2-1.2,2.3-1.2,3a1.3,1.3,0,0,0,1.3,1.4,1.4,1.4,0,0,0,1.4-1.4C121.5,205.7,120.8,203.5,120.1,203.4Z" style="fill:#fff"/><path d="M119.4,203.2c-.3-.8-2.5-.4-3.2-.1a1.4,1.4,0,0,0-.7,1.8,1.3,1.3,0,0,0,1.7.8C117.9,205.4,119.7,203.9,119.4,203.2Z" style="fill:#fff"/><path d="M168,19.1c-.7-.3-3-.8-3.3-.1s1.3,2.2,2,2.6a1.5,1.5,0,0,0,1.9-.6A1.6,1.6,0,0,0,168,19.1Z" style="fill:#fff"/><path d="M160.1,17.6c.6.5,2.7,1.3,3.2.8a.3.3,0,0,0-.1.2.8.8,0,0,0,.8.8c-.7.2-1.2,2.3-1.2,3a1.3,1.3,0,0,0,1.3,1.4,1.4,1.4,0,0,0,1.4-1.4c0-.7-.7-2.9-1.4-3a.8.8,0,0,0,.7-.8v-.2c.5.6,2.6-.1,3.2-.5a1.3,1.3,0,0,0,.4-1.9,1.3,1.3,0,0,0-1.8-.5c-.7.4-2.1,2.1-1.8,2.8a.7.7,0,0,0-.5-.4c.7-.2,1.2-2.3,1.2-3a1.4,1.4,0,0,0-1.4-1.4,1.3,1.3,0,0,0-1.3,1.4c0,.7.6,2.7,1.3,3a.6.6,0,0,0-.6.3c.3-.6-1-2.3-1.6-2.8a1.3,1.3,0,0,0-1.9.2A1.4,1.4,0,0,0,160.1,17.6Z" style="fill:#fff"/><path d="M160.2,19.1a1.4,1.4,0,0,0-.7,1.8,1.3,1.3,0,0,0,1.7.8c.7-.3,2.5-1.8,2.2-2.5S160.9,18.8,160.2,19.1Z" style="fill:#fff"/><path d="M257,149c-.3.7,1.4,2.2,2,2.6a1.4,1.4,0,1,0,1.3-2.5C259.6,148.8,257.4,148.3,257,149Z" style="fill:#fff"/><path d="M254.1,145.4a1.3,1.3,0,0,0-1.9.2,1.7,1.7,0,0,0,.2,2c.6.5,2.7,1.3,3.2.8v.2a.7.7,0,0,0,.7.8c-.7.2-1.2,2.3-1.2,3a1.4,1.4,0,0,0,1.4,1.4,1.3,1.3,0,0,0,1.3-1.4c0-.7-.6-2.9-1.4-3a.8.8,0,0,0,.7-.8v-.2c.4.6,2.5-.1,3.2-.5a1.4,1.4,0,0,0,.4-1.9,1.4,1.4,0,0,0-1.9-.5c-.6.4-2,2.1-1.8,2.8a.7.7,0,0,0-.5-.4c.7-.2,1.2-2.3,1.2-3a1.3,1.3,0,0,0-1.3-1.4,1.4,1.4,0,0,0-1.4,1.4c0,.7.6,2.7,1.3,3a.6.6,0,0,0-.6.3C256,147.6,254.7,145.9,254.1,145.4Z" style="fill:#fff"/><path d="M253.6,151.7c.7-.3,2.5-1.8,2.2-2.5s-2.6-.4-3.3-.1a1.4,1.4,0,0,0-.7,1.8A1.4,1.4,0,0,0,253.6,151.7Z" style="fill:#fff"/><path d="M12.9,151a1.5,1.5,0,0,0-.6-1.9c-.7-.3-2.9-.8-3.3-.1s1.4,2.2,2,2.6A1.5,1.5,0,0,0,12.9,151Z" style="fill:#fff"/><path d="M8.5,153.8a1.3,1.3,0,0,0,1.3-1.4c0-.7-.6-2.9-1.4-3a.8.8,0,0,0,.7-.8v-.2c.4.6,2.5-.1,3.2-.5a1.4,1.4,0,0,0,.4-1.9,1.4,1.4,0,0,0-1.9-.5c-.6.4-2,2.1-1.8,2.8a.7.7,0,0,0-.5-.4c.7-.2,1.2-2.3,1.2-3a1.3,1.3,0,0,0-1.3-1.4A1.4,1.4,0,0,0,7,144.9c0,.7.6,2.7,1.3,3a.6.6,0,0,0-.6.3c.3-.6-1-2.3-1.6-2.8a1.3,1.3,0,0,0-1.9.2,1.7,1.7,0,0,0,.2,2c.6.5,2.7,1.3,3.2.8v.2a.7.7,0,0,0,.7.8c-.7.2-1.2,2.3-1.2,3A1.4,1.4,0,0,0,8.5,153.8Z" style="fill:#fff"/><path d="M4.5,149.1a1.4,1.4,0,0,0-.7,1.8,1.4,1.4,0,0,0,1.8.8c.7-.3,2.5-1.8,2.2-2.5S5.2,148.8,4.5,149.1Z" style="fill:#fff"/><path d="M257.7,83.9a1.3,1.3,0,0,0-1.3-1.4,1.4,1.4,0,0,0-1.4,1.4c0,.7.6,2.7,1.3,3a.6.6,0,0,0-.6.3c.3-.6-1-2.3-1.6-2.8a1.3,1.3,0,0,0-1.9.2,1.7,1.7,0,0,0,.2,2c.6.5,2.7,1.3,3.2.8v.2a.7.7,0,0,0,.7.8c-.7.2-1.2,2.3-1.2,3a1.4,1.4,0,0,0,1.4,1.4,1.3,1.3,0,0,0,1.3-1.4c0-.7-.6-2.9-1.4-3a.8.8,0,0,0,.7-.8v-.2c.4.6,2.5-.1,3.2-.5a1.4,1.4,0,0,0,.4-1.9,1.4,1.4,0,0,0-1.9-.5c-.6.4-2,2.1-1.8,2.8a.7.7,0,0,0-.5-.4C257.2,86.7,257.7,84.6,257.7,83.9Z" style="fill:#fff"/><path d="M257,88c-.3.7,1.4,2.2,2,2.6a1.4,1.4,0,1,0,1.3-2.5C259.6,87.8,257.4,87.3,257,88Z" style="fill:#fff"/><path d="M255.8,88.2c-.3-.8-2.6-.4-3.3-.1a1.4,1.4,0,0,0-.7,1.8,1.4,1.4,0,0,0,1.8.8C254.3,90.4,256.1,88.9,255.8,88.2Z" style="fill:#fff"/><path d="M12.3,88.1c-.7-.3-2.9-.8-3.3-.1s1.4,2.2,2,2.6a1.4,1.4,0,1,0,1.3-2.5Z" style="fill:#fff"/><path d="M4.5,88.1a1.4,1.4,0,0,0-.7,1.8,1.4,1.4,0,0,0,1.8.8c.7-.3,2.5-1.8,2.2-2.5S5.2,87.8,4.5,88.1Z" style="fill:#fff"/><path d="M8.5,92.8a1.3,1.3,0,0,0,1.3-1.4c0-.7-.6-2.9-1.4-3a.8.8,0,0,0,.7-.8v-.2c.4.6,2.5-.1,3.2-.5a1.4,1.4,0,0,0,.4-1.9,1.4,1.4,0,0,0-1.9-.5c-.6.4-2,2.1-1.8,2.8a.7.7,0,0,0-.5-.4c.7-.2,1.2-2.3,1.2-3a1.3,1.3,0,0,0-1.3-1.4A1.4,1.4,0,0,0,7,83.9c0,.7.6,2.7,1.3,3a.6.6,0,0,0-.6.3c.3-.6-1-2.3-1.6-2.8a1.3,1.3,0,0,0-1.9.2,1.7,1.7,0,0,0,.2,2c.6.5,2.7,1.3,3.2.8v.2a.7.7,0,0,0,.7.8c-.7.2-1.2,2.3-1.2,3A1.4,1.4,0,0,0,8.5,92.8Z" style="fill:#fff"/><path d="M190.2,89.7a1.4,1.4,0,0,0-.6-1.9c-.6-.4-2.9-.8-3.3-.1s1.4,2.2,2.1,2.5A1.3,1.3,0,0,0,190.2,89.7Z" style="fill:#fff"/><path d="M185.1,87.8c-.3-.7-2.6-.3-3.2,0a1.4,1.4,0,0,0-.8,1.8,1.4,1.4,0,0,0,1.8.7C183.6,90,185.4,88.5,185.1,87.8Z" style="fill:#fff"/><path d="M183.5,84.1a1.3,1.3,0,0,0-1.9.2,1.4,1.4,0,0,0,.2,2c.6.4,2.7,1.3,3.2.7a.4.4,0,0,0-.1.3.8.8,0,0,0,.8.8c-.8.1-1.3,2.2-1.3,3a1.4,1.4,0,0,0,1.4,1.4,1.5,1.5,0,0,0,1.4-1.4c0-.8-.7-3-1.4-3a.9.9,0,0,0,.6-.8v-.2c.4.6,2.6-.2,3.2-.6a1.4,1.4,0,1,0-1.5-2.3c-.6.4-2,2.1-1.7,2.8a.5.5,0,0,0-.6-.4c.7-.2,1.3-2.3,1.3-3a1.4,1.4,0,0,0-1.4-1.4,1.4,1.4,0,0,0-1.4,1.4c0,.7.6,2.7,1.3,2.9l-.6.4C185.3,86.2,184,84.5,183.5,84.1Z" style="fill:#fff"/><path d="M185.7,150.9a1.4,1.4,0,0,0,1.9-.6,1.4,1.4,0,0,0-.6-1.8c-.7-.4-3-.8-3.3-.2S185,150.6,185.7,150.9Z" style="fill:#fff"/><path d="M184.5,151.7c0-.7-.7-2.9-1.4-3a.7.7,0,0,0,.7-.7v-.3c.5.6,2.6-.1,3.2-.5a1.3,1.3,0,0,0,.4-1.9,1.2,1.2,0,0,0-1.8-.4c-.7.4-2.1,2-1.8,2.7a1,1,0,0,0-.5-.4c.7-.1,1.2-2.2,1.2-3a1.4,1.4,0,0,0-1.4-1.4,1.4,1.4,0,0,0-1.3,1.4c0,.7.6,2.8,1.3,3a.7.7,0,0,0-.6.4c.3-.7-1-2.4-1.6-2.8a1.4,1.4,0,1,0-1.7,2.1c.6.5,2.7,1.3,3.2.8s-.1.2-.1.3a.8.8,0,0,0,.8.7c-.7.2-1.2,2.3-1.2,3a1.3,1.3,0,0,0,1.3,1.4A1.4,1.4,0,0,0,184.5,151.7Z" style="fill:#fff"/><path d="M180.2,151c.7-.3,2.5-1.8,2.2-2.5s-2.5-.4-3.2-.1a1.4,1.4,0,0,0-.7,1.9A1.2,1.2,0,0,0,180.2,151Z" style="fill:#fff"/><path d="M87,148.5c-.7-.4-3-.8-3.3-.2s1.3,2.3,2,2.6a1.4,1.4,0,0,0,1.9-.6A1.4,1.4,0,0,0,87,148.5Z" style="fill:#fff"/><path d="M83.1,153.1a1.4,1.4,0,0,0,1.4-1.4c0-.7-.7-2.9-1.4-3a.7.7,0,0,0,.7-.7v-.3c.5.6,2.6-.1,3.2-.5a1.3,1.3,0,0,0,.4-1.9,1.2,1.2,0,0,0-1.8-.4c-.7.4-2.1,2-1.8,2.7a1,1,0,0,0-.5-.4c.7-.1,1.2-2.2,1.2-3a1.4,1.4,0,0,0-1.4-1.4,1.4,1.4,0,0,0-1.3,1.4c0,.7.6,2.8,1.3,3a.7.7,0,0,0-.6.4c.3-.7-1-2.4-1.6-2.8a1.4,1.4,0,1,0-1.7,2.1c.6.5,2.7,1.3,3.2.8s-.1.2-.1.3a.8.8,0,0,0,.8.7c-.7.2-1.2,2.3-1.2,3A1.3,1.3,0,0,0,83.1,153.1Z" style="fill:#fff"/><path d="M80.2,151c.7-.3,2.5-1.8,2.2-2.5s-2.5-.4-3.2-.1a1.4,1.4,0,0,0-.7,1.9A1.2,1.2,0,0,0,80.2,151Z" style="fill:#fff"/><path d="M106.8,218.2a1.5,1.5,0,0,0-.6-1.9c-.7-.3-2.9-.8-3.3-.1s1.4,2.2,2,2.6A1.5,1.5,0,0,0,106.8,218.2Z" style="fill:#fff"/><path d="M101.7,216.3c-.3-.7-2.6-.3-3.3,0a1.4,1.4,0,0,0,1.1,2.5C100.2,218.5,102,217,101.7,216.3Z" style="fill:#fff"/><path d="M102.3,216.6a.8.8,0,0,0,.7-.8v-.2c.4.6,2.5-.1,3.2-.5a1.6,1.6,0,0,0,.4-2,1.4,1.4,0,0,0-1.9-.4c-.6.4-2,2.1-1.8,2.8a.7.7,0,0,0-.5-.4c.7-.2,1.2-2.3,1.2-3a1.3,1.3,0,0,0-1.3-1.4,1.4,1.4,0,0,0-1.4,1.4c0,.7.6,2.7,1.3,2.9a.9.9,0,0,0-.6.4c.3-.6-1-2.3-1.6-2.8a1.3,1.3,0,0,0-1.9.2,1.7,1.7,0,0,0,.2,2c.6.4,2.7,1.3,3.2.7v.3a.8.8,0,0,0,.7.8c-.7.1-1.2,2.3-1.2,3a1.4,1.4,0,0,0,1.4,1.4,1.3,1.3,0,0,0,1.3-1.4C103.7,218.8,103.1,216.7,102.3,216.6Z" style="fill:#fff"/><path d="M168.3,217.1c-.7-.3-2.9-.8-3.3-.1s1.4,2.2,2,2.6a1.4,1.4,0,0,0,1.3-2.5Z" style="fill:#fff"/><path d="M163.8,217.2c-.3-.8-2.6-.4-3.3-.1a1.4,1.4,0,0,0-.7,1.8,1.4,1.4,0,0,0,1.8.8C162.3,219.4,164.1,217.9,163.8,217.2Z" style="fill:#fff"/><path d="M168.3,215.9a1.4,1.4,0,0,0,.4-1.9,1.4,1.4,0,0,0-1.9-.5c-.6.4-2,2.1-1.8,2.8a.7.7,0,0,0-.5-.4c.7-.2,1.2-2.3,1.2-3a1.3,1.3,0,0,0-1.3-1.4,1.4,1.4,0,0,0-1.4,1.4c0,.7.6,2.7,1.3,3a.6.6,0,0,0-.6.3c.3-.6-1-2.3-1.6-2.8a1.3,1.3,0,0,0-1.9.2,1.7,1.7,0,0,0,.2,2c.6.5,2.7,1.3,3.2.8v.2a.7.7,0,0,0,.7.8c-.7.2-1.2,2.3-1.2,3a1.4,1.4,0,0,0,1.4,1.4,1.3,1.3,0,0,0,1.3-1.4c0-.7-.6-2.9-1.4-3a.8.8,0,0,0,.7-.8v-.2C165.5,217,167.6,216.3,168.3,215.9Z" style="fill:#fff"/><path d="M194.6,96.4a1.5,1.5,0,0,0-1.5-1.5,1.5,1.5,0,0,0-1.4,1.5c0,.8.6,2.9,1.3,3.2l-.6.4c.4-.7-1-2.5-1.6-3a1.5,1.5,0,1,0-1.9,2.3c.7.5,2.9,1.4,3.5.9a.4.4,0,0,0-.1.3.8.8,0,0,0,.8.8c-.8.2-1.3,2.4-1.3,3.2a1.5,1.5,0,0,0,1.4,1.5,1.5,1.5,0,0,0,1.5-1.5c0-.8-.7-3.1-1.5-3.2s.8-.4.8-.8v-.3c.5.7,2.7-.1,3.4-.6a1.5,1.5,0,0,0,.5-2,1.5,1.5,0,0,0-2-.5c-.7.4-2.2,2.2-1.9,3a.7.7,0,0,0-.6-.4C194.1,99.4,194.6,97.2,194.6,96.4Z" style="fill:#fff"/><path d="M197.4,101c-.7-.4-3.2-.9-3.6-.1s1.5,2.3,2.2,2.7a1.5,1.5,0,0,0,1.4-2.6Z" style="fill:#fff"/><path d="M192.5,101c-.3-.7-2.7-.4-3.5,0a1.5,1.5,0,0,0-.8,1.9,1.4,1.4,0,0,0,1.9.8C190.9,103.4,192.8,101.8,192.5,101Z" style="fill:#fff"/><path d="M196,140.6a1.5,1.5,0,0,0,1.4-2.6c-.7-.4-3.2-.9-3.6-.1S195.3,140.2,196,140.6Z" style="fill:#fff"/><path d="M193.2,143a1.5,1.5,0,0,0,1.5-1.5c0-.8-.7-3.1-1.5-3.2s.8-.4.8-.8-.1-.2-.1-.3,2.7-.1,3.4-.6a1.5,1.5,0,0,0,.5-2,1.5,1.5,0,0,0-2-.5c-.7.4-2.2,2.2-1.9,3a.7.7,0,0,0-.6-.4c.8-.3,1.3-2.5,1.3-3.3a1.5,1.5,0,0,0-1.5-1.5,1.5,1.5,0,0,0-1.4,1.5c0,.8.6,2.9,1.3,3.2l-.6.4c.4-.7-1-2.5-1.6-3a1.5,1.5,0,0,0-1.9,2.3c.7.5,2.9,1.4,3.5.9a.4.4,0,0,0-.1.3.8.8,0,0,0,.8.8c-.8.2-1.3,2.4-1.3,3.2A1.5,1.5,0,0,0,193.2,143Z" style="fill:#fff"/><path d="M190.1,140.7c.8-.3,2.7-1.9,2.4-2.7s-2.7-.4-3.5,0a1.5,1.5,0,0,0-.8,1.9A1.4,1.4,0,0,0,190.1,140.7Z" style="fill:#fff"/><path d="M72.8,100.9c-.3.7,1.5,2.3,2.2,2.7a1.5,1.5,0,0,0,1.4-2.6C75.7,100.6,73.2,100.1,72.8,100.9Z" style="fill:#fff"/><path d="M67.2,102.9a1.4,1.4,0,0,0,1.9.8c.8-.3,2.7-1.9,2.4-2.7s-2.7-.4-3.5,0A1.5,1.5,0,0,0,67.2,102.9Z" style="fill:#fff"/><path d="M69.8,97a1.5,1.5,0,1,0-1.9,2.3c.7.5,2.9,1.4,3.5.9a.4.4,0,0,0-.1.3.8.8,0,0,0,.8.8c-.8.2-1.3,2.4-1.3,3.2a1.5,1.5,0,0,0,1.4,1.5,1.5,1.5,0,0,0,1.5-1.5c0-.8-.7-3.1-1.5-3.2s.8-.4.8-.8v-.3c.5.7,2.7-.1,3.4-.6a1.5,1.5,0,0,0,.5-2,1.5,1.5,0,0,0-2-.5c-.7.4-2.2,2.2-1.9,3a.7.7,0,0,0-.6-.4c.8-.3,1.3-2.5,1.3-3.3a1.5,1.5,0,0,0-1.5-1.5,1.5,1.5,0,0,0-1.4,1.5c0,.8.6,2.9,1.3,3.2l-.6.4C71.8,99.3,70.4,97.5,69.8,97Z" style="fill:#fff"/><path d="M75,140.6a1.5,1.5,0,1,0,1.4-2.6c-.7-.4-3.2-.9-3.6-.1S74.3,140.2,75,140.6Z" style="fill:#fff"/><path d="M67.2,139.9a1.4,1.4,0,0,0,1.9.8c.8-.3,2.7-1.9,2.4-2.7s-2.7-.4-3.5,0A1.5,1.5,0,0,0,67.2,139.9Z" style="fill:#fff"/><path d="M72.2,143a1.5,1.5,0,0,0,1.5-1.5c0-.8-.7-3.1-1.5-3.2s.8-.4.8-.8-.1-.2-.1-.3,2.7-.1,3.4-.6a1.5,1.5,0,0,0,.5-2,1.5,1.5,0,0,0-2-.5c-.7.4-2.2,2.2-1.9,3a.7.7,0,0,0-.6-.4c.8-.3,1.3-2.5,1.3-3.3a1.5,1.5,0,0,0-1.5-1.5,1.5,1.5,0,0,0-1.4,1.5c0,.8.6,2.9,1.3,3.2l-.6.4c.4-.7-1-2.5-1.6-3a1.5,1.5,0,1,0-1.9,2.3c.7.5,2.9,1.4,3.5.9a.4.4,0,0,0-.1.3.8.8,0,0,0,.8.8c-.8.2-1.3,2.4-1.3,3.2A1.5,1.5,0,0,0,72.2,143Z" style="fill:#fff"/><path d="M120.5,133c-.9.5-2.8,2.8-2.6,3.9a.8.8,0,0,0-.7-.5c1-.3,1.7-3.3,1.7-4.3a1.9,1.9,0,0,0-1.9-2,2,2,0,0,0-2,2c0,1,.9,3.8,1.8,4.2a1.2,1.2,0,0,0-.7.5c.3-1-1.5-3.3-2.3-4a1.9,1.9,0,0,0-2.7.3,1.9,1.9,0,0,0,.3,2.8c.8.7,3.8,1.9,4.6,1.1a.8.8,0,0,0-.1.4,1,1,0,0,0,1,1.1c-1,.3-1.7,3.3-1.7,4.3a2,2,0,1,0,3.9,0c0-1-.9-4.1-2-4.3a1.1,1.1,0,0,0,1-1.1v-.3c.6.9,3.7-.2,4.6-.8a1.9,1.9,0,0,0,.6-2.7A2,2,0,0,0,120.5,133Z" style="fill:#fff"/><path d="M117.9,138c-.5.9,2,3.1,2.9,3.7a2,2,0,0,0,1.8-3.6C121.7,137.6,118.4,137,117.9,138Z" style="fill:#fff"/><path d="M111.5,138.1a2,2,0,0,0-1.1,2.6,2.1,2.1,0,0,0,2.6,1.1c1-.5,3.6-2.6,3.1-3.6S112.5,137.7,111.5,138.1Z" style="fill:#fff"/><path d="M106.6,78.1a2.1,2.1,0,0,0-1.6-2.7,2.1,2.1,0,1,0-1.2,4.1A2.2,2.2,0,0,0,106.6,78.1Z" style="fill:#fff"/><path d="M101.4,84.7a1.7,1.7,0,0,0,2.4-.7,1.8,1.8,0,1,0-2.4.7Z" style="fill:#fff"/><path d="M100.1,86.7a1.3,1.3,0,0,0-1.8.3,1.3,1.3,0,0,0,.3,1.8,1.4,1.4,0,0,0,1.9-.2A1.4,1.4,0,0,0,100.1,86.7Z" style="fill:#fff"/><path d="M97,91.8a.9.9,0,0,0,0-1.3.8.8,0,0,0-1.2-.1.9.9,0,0,0-.1,1.3A.9.9,0,0,0,97,91.8Z" style="fill:#fff"/><path d="M93.7,94.1a.8.8,0,0,0,.2-1,.8.8,0,0,0-1-.2.7.7,0,0,0-.2.9A.7.7,0,0,0,93.7,94.1Z" style="fill:#fff"/><path d="M90.4,95.6a.6.6,0,0,0,.2-.7.4.4,0,0,0-.6-.3.5.5,0,0,0-.3.7A.6.6,0,0,0,90.4,95.6Z" style="fill:#fff"/><path d="M87.5,96a.5.5,0,0,0-.4-.3c-.2.1-.3.2-.2.4s.2.3.3.2A.3.3,0,0,0,87.5,96Z" style="fill:#fff"/><path d="M84.2,96.5a.2.2,0,0,0,.4,0c0-.2-.1-.3-.3-.2S84.1,96.4,84.2,96.5Z" style="fill:#fff"/><path d="M78.7,9.8a3,3,0,0,0-1.5,4.1A3.1,3.1,0,0,0,81,15.5a3.2,3.2,0,0,0,1.6-3.9A2.9,2.9,0,0,0,78.7,9.8Z" style="fill:#fff"/><path d="M88.5,12.5a2.5,2.5,0,0,0-1.1-4.8,2.4,2.4,0,0,0-1.8,3A2.5,2.5,0,0,0,88.5,12.5Z" style="fill:#fff"/><path d="M95.3,11A1.8,1.8,0,0,0,97,9.2a1.8,1.8,0,0,0-1.8-1.9,1.9,1.9,0,0,0-1.7,2A1.8,1.8,0,0,0,95.3,11Z" style="fill:#fff"/><path d="M100.2,9.4a1.3,1.3,0,0,0,1,1.4,1.2,1.2,0,0,0,1.4-1.1,1.1,1.1,0,0,0-1-1.4A1.2,1.2,0,0,0,100.2,9.4Z" style="fill:#fff"/><path d="M106.3,11.8a1.1,1.1,0,0,0,1.2-.7,1,1,0,0,0-.5-1.3,1,1,0,0,0-1.2.7A1.1,1.1,0,0,0,106.3,11.8Z" style="fill:#fff"/><path d="M110.7,13.4a.6.6,0,0,0,.9-.3.6.6,0,0,0-.2-1,.7.7,0,0,0-.9.4A.7.7,0,0,0,110.7,13.4Z" style="fill:#fff"/><path d="M115,15.5c.1-.2.1-.5-.1-.6s-.4-.1-.6,0-.1.5.1.6A.4.4,0,0,0,115,15.5Z" style="fill:#fff"/><path d="M117.8,18a.3.3,0,0,0-.4-.4.2.2,0,0,0-.1.4A.4.4,0,0,0,117.8,18Z" style="fill:#fff"/><path d="M50.7,50.7a2.4,2.4,0,0,0-1.3-2.8,2.2,2.2,0,0,0-2.7,1.3,2.1,2.1,0,0,0,1.2,2.9A2.1,2.1,0,0,0,50.7,50.7Z" style="fill:#fff"/><path d="M54.3,53.4a1.7,1.7,0,0,0,2-1.6,1.8,1.8,0,0,0-1.4-2,1.8,1.8,0,0,0-2,1.5A1.8,1.8,0,0,0,54.3,53.4Z" style="fill:#fff"/><path d="M61.2,52a1.3,1.3,0,0,0-1.3-1.3A1.3,1.3,0,0,0,58.7,52,1.3,1.3,0,0,0,60,53.4,1.3,1.3,0,0,0,61.2,52Z" style="fill:#fff"/><path d="M65.3,51.4a1,1,0,0,0-1.1-.7.9.9,0,0,0,.4,1.8A.9.9,0,0,0,65.3,51.4Z" style="fill:#fff"/><path d="M68.4,51.2a.7.7,0,0,0,.4-1,.7.7,0,0,0-.9-.4.8.8,0,0,0-.4.9A.8.8,0,0,0,68.4,51.2Z" style="fill:#fff"/><path d="M71.6,49.3a.5.5,0,0,0,.1-.7.7.7,0,0,0-.7-.2.6.6,0,0,0-.1.8A.5.5,0,0,0,71.6,49.3Z" style="fill:#fff"/><path d="M73.6,46.8a.3.3,0,0,0,0,.4c.1.1.3.2.4.1s.2-.3.1-.5Z" style="fill:#fff"/><path d="M76,45.2a.2.2,0,1,0-.3,0Z" style="fill:#fff"/><path d="M240.4,97.5c5.6-1.9,9.1-7.5,7.7-13.1-.9-2.6-2.2-5.1-5.1-5.9s-6.8-.2-8,3.2,3.2,3,5.2,4,.8,4.4-.8,6.1c-4.4,3-10.3.4-12.9-4.2-4.6-8.7,1.5-17.9,9.6-21.4.4-.3-.3-.4-1.7,0-8.9,2.2-14.5,11.7-12.6,20.4S231.9,100.3,240.4,97.5Z" style="fill:#fff"/><path d="M209.2,81.8A46.4,46.4,0,0,0,204,92.3a42.3,42.3,0,0,0-1.6,5.9,2.9,2.9,0,0,0,2.4,3.4,2.9,2.9,0,0,0,3-2.7c.1-.3.2-2.5.7-5.5a43.1,43.1,0,0,1,3.1-10.2,35.9,35.9,0,0,1,5.7-8.9,19,19,0,0,1,3.6-3.3,22,22,0,0,0-4.2,2.7A37.3,37.3,0,0,0,209.2,81.8Z" style="fill:#fff"/><path d="M201.8,78a32.7,32.7,0,0,0-3.5,4.9,2.8,2.8,0,0,0,1.1,3.9,2.9,2.9,0,0,0,3.7-1.4c.2-.3,1-2.2,2.5-4.6a28.2,28.2,0,0,1,2.7-4,34.1,34.1,0,0,1,3.8-3.8,31.2,31.2,0,0,1,4.5-2.9,21.8,21.8,0,0,1,9-2.6,20.4,20.4,0,0,0-4.8,0,18.7,18.7,0,0,0-4.8,1,23.1,23.1,0,0,0-5.4,2.3,24.5,24.5,0,0,0-5,3.4C204.2,75.5,202.9,76.8,201.8,78Z" style="fill:#fff"/><path d="M205.7,65.8a1.9,1.9,0,0,0,2.5,1.2c.3,0,1.5-.6,3.4-1.3a28.9,28.9,0,0,1,6.7-1.5,21.4,21.4,0,0,1,6.9.6,9.8,9.8,0,0,1,2.9,1.1,9.6,9.6,0,0,0-2.7-1.7,21.5,21.5,0,0,0-7-2,32.6,32.6,0,0,0-7.7.1l-3.9.9A1.9,1.9,0,0,0,205.7,65.8Z" style="fill:#fff"/><path d="M217.3,82.8a32.5,32.5,0,0,1,1.9-5,30.7,30.7,0,0,1,2.6-4.6,28,28,0,0,0-3.3,4.3,36.8,36.8,0,0,0-5,10.9,30.5,30.5,0,0,0-1.1,6.5,28.4,28.4,0,0,0,.1,5.9,32.5,32.5,0,0,0,1.5,6.4,3,3,0,0,0,1.6,1.7,2.2,2.2,0,0,0,2.1,0,2.9,2.9,0,0,0,1.3-1.8,3.3,3.3,0,0,0-.1-2.2,27.1,27.1,0,0,1-2-5.2,33.5,33.5,0,0,1-.9-5.1,23.5,23.5,0,0,1,.1-5.9A29.4,29.4,0,0,1,217.3,82.8Z" style="fill:#fff"/><path d="M234.2,108.6c-.2-.2-1.9-1.1-4.1-2.6a30.3,30.3,0,0,1-6.7-6.7,28.2,28.2,0,0,1-2.6-4.4c-.6-1.4-1.1-2.9-1.5-4.1a21.2,21.2,0,0,1-.6-4.3,15.9,15.9,0,0,0-.2,4.4,28.7,28.7,0,0,0,.7,4.6,29.3,29.3,0,0,0,1.8,5.2,34.2,34.2,0,0,0,6,8.7,46.8,46.8,0,0,0,4.2,3.8,2.8,2.8,0,0,0,3.9-.9A2.8,2.8,0,0,0,234.2,108.6Z" style="fill:#fff"/><path d="M254.6,98.4a3.2,3.2,0,0,0-4-.9,37.3,37.3,0,0,1-4.9,2.6,30.2,30.2,0,0,1-4.8,1.4,20.9,20.9,0,0,1-5.6.1,20,20,0,0,1-5.4-1.7,18.4,18.4,0,0,1-4.1-2.8,19.8,19.8,0,0,1-3.4-3.7,23.6,23.6,0,0,0,6.6,8,22.9,22.9,0,0,0,6,3.2,19.6,19.6,0,0,0,5.9.9,32.7,32.7,0,0,0,5.9-.5,18.4,18.4,0,0,0,6.2-2.5C254.4,101.6,255.4,99.7,254.6,98.4Z" style="fill:#fff"/><path d="M231.9,61.1a14.8,14.8,0,0,0,16.9-2.7,13.5,13.5,0,0,0,2.7-16A10.5,10.5,0,0,0,240.4,37a8.9,8.9,0,0,0-7.1,7.9,7.2,7.2,0,0,0,1.5,4.5c1.5,1.5,4.2,2.8,6.5,1.5s1.7-4.5,1.3-6.7c4.4-.9,5.3,4,4.9,7.1-2.2,8-12.9,8.9-18.3,3.6s-5.8-11.6-3.1-17.4,7.6-8,12.5-10.7a18.9,18.9,0,0,0-16.5,16.5A17.2,17.2,0,0,0,231.9,61.1Z" style="fill:#fff"/><path d="M199.7,42.8a18.9,18.9,0,0,0,21.9-7.9c-4.5,3.3-9.2,7-15,6.7s-11.8-4.1-14.4-10.2,2.9-16.5,11.1-15c3,.9,7,3.8,4.3,7.4-1.8-1.3-4.2-3.5-6.6-1.6s-2.1,4.4-1.4,6.5a7.1,7.1,0,0,0,3.4,3.2,8.7,8.7,0,0,0,10.1-3,10.7,10.7,0,0,0,0-12.4,13.7,13.7,0,0,0-15.7-4.4,15.1,15.1,0,0,0-9.7,14.2A17.4,17.4,0,0,0,199.7,42.8Z" style="fill:#fff"/><path d="M192.3,40.5c-7.9-4.7-18.6-1.9-23.4,5.6s-2.5,16.8,5.5,20.8c5.3,2.6,11.7,1.2,14.7-3.8,1.2-2.4,2-5.1.6-7.8s-4.7-4.9-7.9-3.4.1,4.5.8,6.6-2.6,3.6-4.8,3.7c-5.3-1-7.6-7-6.2-12.1,2.8-9.4,13.6-11.6,21.9-8.4C194,41.8,193.5,41.3,192.3,40.5Z" style="fill:#fff"/><path d="M232.1,23.1A41.3,41.3,0,0,0,221,26.8a49.2,49.2,0,0,0-5.3,3.1,2.7,2.7,0,0,0-.7,4,2.8,2.8,0,0,0,4,.3c.3-.2,1.9-1.7,4.4-3.4a41.3,41.3,0,0,1,9.4-5.1,32.9,32.9,0,0,1,10.3-2.2,20.4,20.4,0,0,1,4.9.2,25.2,25.2,0,0,0-4.8-1.1A39.1,39.1,0,0,0,232.1,23.1Z" style="fill:#fff"/><path d="M221.7,19.7a2.8,2.8,0,0,0,3.6,1.6,41.8,41.8,0,0,1,5-1.6l4.7-.8a32.4,32.4,0,0,1,5.4,0,28.2,28.2,0,0,1,5.2,1.1,20.1,20.1,0,0,1,4.4,1.9,17.8,17.8,0,0,1,3.8,2.7,18.5,18.5,0,0,0-3.3-3.4,38.2,38.2,0,0,0-4.2-2.8,29,29,0,0,0-5.4-2.2,31.7,31.7,0,0,0-5.9-1,32.4,32.4,0,0,0-5.4,0,30.6,30.6,0,0,0-5.9.9A2.8,2.8,0,0,0,221.7,19.7Z" style="fill:#fff"/><path d="M240.9,9.3a2,2,0,0,0,.9,2.6,26.2,26.2,0,0,1,3.3,1.5,25.9,25.9,0,0,1,5.9,3.7,20.3,20.3,0,0,1,4.4,5.2,10.6,10.6,0,0,1,1.3,2.9A10.2,10.2,0,0,0,256,22a21.2,21.2,0,0,0-3.5-6.3,30,30,0,0,0-5.5-5.3c-1.8-1.3-3.1-2-3.4-2.2A2,2,0,0,0,240.9,9.3Z" style="fill:#fff"/><path d="M146.3,44.6a2.8,2.8,0,0,0,4,.3c.4-.2,1.9-1.7,4.4-3.4a41.3,41.3,0,0,1,9.4-5.1,33.5,33.5,0,0,1,10.4-2.2,19.2,19.2,0,0,1,4.8.2,22.8,22.8,0,0,0-4.8-1.1,40.8,40.8,0,0,0-22.1,4.2,45,45,0,0,0-5.4,3.1A2.7,2.7,0,0,0,146.3,44.6Z" style="fill:#fff"/><path d="M156.6,32.1a24.5,24.5,0,0,1,5-1.7l4.7-.8a32.5,32.5,0,0,1,5.4,0,31.2,31.2,0,0,1,5.3,1.1,21.4,21.4,0,0,1,4.3,1.9,15,15,0,0,1,3.8,2.7,18.5,18.5,0,0,0-3.3-3.4,25.4,25.4,0,0,0-4.2-2.8,26.5,26.5,0,0,0-5.4-2.2,30.3,30.3,0,0,0-5.9-1,37.6,37.6,0,0,0-11.3.9,2.8,2.8,0,0,0-2,3.6A3,3,0,0,0,156.6,32.1Z" style="fill:#fff"/><path d="M173.2,22.6c.2.2,1.5.6,3.3,1.5a27.8,27.8,0,0,1,5.8,3.7,23.2,23.2,0,0,1,4.5,5.2,16.5,16.5,0,0,1,1.3,2.9,13.2,13.2,0,0,0-.8-3.2,21.2,21.2,0,0,0-3.5-6.3,33.8,33.8,0,0,0-5.5-5.3c-1.8-1.3-3.1-2-3.4-2.2a2,2,0,0,0-2.7,1.1A2,2,0,0,0,173.2,22.6Z" style="fill:#fff"/><path d="M161.8,41.5a30.6,30.6,0,0,0-5.4,3.8,32.5,32.5,0,0,0-4.1,4.3,34.5,34.5,0,0,0-3.4,5.5,2.9,2.9,0,0,0-.1,2.4,2.1,2.1,0,0,0,1.5,1.4,2.9,2.9,0,0,0,2.2-.3,3.6,3.6,0,0,0,1.5-1.7,32.9,32.9,0,0,1,2.2-5,33.8,33.8,0,0,1,3-4.3,32.8,32.8,0,0,1,4.2-4.1,30.8,30.8,0,0,1,5-3.3,50.1,50.1,0,0,1,4.9-2.2,27.9,27.9,0,0,1,5.1-1.4,27.5,27.5,0,0,0-5.3.7A35.9,35.9,0,0,0,161.8,41.5Z" style="fill:#fff"/><path d="M163.6,46.8a29.7,29.7,0,0,0-2.8,3.7,25.4,25.4,0,0,0-2.3,5,31.8,31.8,0,0,0-2,10.4c0,3,.3,5.2.3,5.6a2.7,2.7,0,0,0,3.3,2.1,2.8,2.8,0,0,0,2.1-3.2,47.8,47.8,0,0,1-1.1-4.8,29.5,29.5,0,0,1,0-9.4,25.2,25.2,0,0,1,1.3-4.9,18.6,18.6,0,0,1,1.9-4,14.3,14.3,0,0,1,2.5-3.5A13.8,13.8,0,0,0,163.6,46.8Z" style="fill:#fff"/><path d="M181.6,74.2a41.4,41.4,0,0,1-5.3-1.7,27.6,27.6,0,0,1-4.4-2.4,24.5,24.5,0,0,1-4-3.9,18.3,18.3,0,0,1-2.6-5,18.6,18.6,0,0,1-1-4.9,17.8,17.8,0,0,1,.3-5,18.7,18.7,0,0,0-1.1,5,19.1,19.1,0,0,0,.1,5.3,23.2,23.2,0,0,0,2,6.5,15.2,15.2,0,0,0,3.5,4.8,37.1,37.1,0,0,0,4.5,3.9,18.7,18.7,0,0,0,6.2,2.6c1.6.4,3.6-.3,4-1.8A3.1,3.1,0,0,0,181.6,74.2Z" style="fill:#fff"/><path d="M244.1,28.3a19.8,19.8,0,0,0-7.3,2.7,19.4,19.4,0,0,0-3.3,2.6,1.9,1.9,0,0,0-.2,2.6,2.1,2.1,0,0,0,2.5-.5,15.3,15.3,0,0,1,2.5-2.6,18.1,18.1,0,0,1,6.2-3.3,22.9,22.9,0,0,1,6.9-1.1,24,24,0,0,1,3.3.2,25.6,25.6,0,0,0-3.2-.7A23.1,23.1,0,0,0,244.1,28.3Z" style="fill:#fff"/><ellipse cx="133" cy="211" rx="5.4" ry="5.2" style="fill:#fff"/><path d="M129,194.8a4.1,4.1,0,1,0,4.1-3.9A3.9,3.9,0,0,0,129,194.8Z" style="fill:#fff"/><ellipse cx="133.1" cy="181.2" rx="2.8" ry="2.7" style="fill:#fff"/><ellipse cx="133.1" cy="169.3" rx="2.2" ry="2" style="fill:#fff"/><path d="M131.5,158.7a1.6,1.6,0,0,0,3.2,0,1.6,1.6,0,0,0-3.2,0Z" style="fill:#fff"/><path d="M132.1,149.2a.9.9,0,0,0,1,.9.9.9,0,0,0,0-1.8A.9.9,0,0,0,132.1,149.2Z" style="fill:#fff"/><path d="M133.7,140.6a.6.6,0,0,0-.6-.6.7.7,0,0,0-.7.6.7.7,0,0,0,.7.7A.7.7,0,0,0,133.7,140.6Z" style="fill:#fff"/><path d="M145.5,124.6a3.6,3.6,0,0,0-1.5-5c-1.8-1-7.8-2.1-8.9-.4a3,3,0,0,0,.2-1,1.3,1.3,0,0,0-.1-.6c1.3,1.6,6.9-.3,8.6-1.4A3.8,3.8,0,0,0,145,111a3.7,3.7,0,0,0-5.1-1.2c-1.6,1.1-5.2,5.3-4.9,7.3a2.7,2.7,0,0,0-1.2-.9c1.9-.7,3.2-6.2,3.2-8.1a3.7,3.7,0,0,0-3.7-3.7,3.6,3.6,0,0,0-3.7,3.7c0,1.9,1.5,7.2,3.4,8.1a1.6,1.6,0,0,0-1.4.8c.5-2-2.8-6.3-4.3-7.5a3.7,3.7,0,0,0-4.6,5.9c1.6,1.3,7.2,3.5,8.6,2.1a2,2,0,0,0-.1.7,2,2,0,0,0,.3,1.1c-1.4-1.4-6.9-.5-8.6.2a3.7,3.7,0,0,0,2.9,6.9c1.8-.8,6.7-4.9,5.9-6.8h-.1a2.1,2.1,0,0,0,1.4.7c-1.8.7-3.1,6.2-3.1,8.2a3.7,3.7,0,1,0,7.3,0c0-2-1.6-7.7-3.6-8.2a2.3,2.3,0,0,0,1.4-.9c-.8,1.8,3.8,5.9,5.5,6.8A3.6,3.6,0,0,0,145.5,124.6Z" style="fill:#fff"/><ellipse cx="133" cy="24" rx="5.4" ry="5.2" style="fill:#fff"/><path d="M137,40.3a4.1,4.1,0,0,0-8.1,0,4.1,4.1,0,0,0,8.1,0Z" style="fill:#fff"/><path d="M132.9,51.2a2.7,2.7,0,0,0-2.8,2.6,2.8,2.8,0,0,0,2.8,2.7,2.7,2.7,0,0,0,2.8-2.7A2.6,2.6,0,0,0,132.9,51.2Z" style="fill:#fff"/><path d="M132.9,63.6a2.1,2.1,0,1,0,2.2,2.1A2.1,2.1,0,0,0,132.9,63.6Z" style="fill:#fff"/><path d="M134.5,76.3a1.6,1.6,0,0,0-3.2,0,1.6,1.6,0,0,0,3.2,0Z" style="fill:#fff"/><path d="M133.9,85.8a.9.9,0,0,0-1-.9.9.9,0,0,0,0,1.8A.9.9,0,0,0,133.9,85.8Z" style="fill:#fff"/><path d="M132.3,94.4a.6.6,0,0,0,.6.6.7.7,0,0,0,.7-.6.7.7,0,0,0-.7-.7A.7.7,0,0,0,132.3,94.4Z" style="fill:#fff"/><path d="M252.7,65.5c-.9.5-2.8,2.8-2.6,3.9s-.4-.5-.7-.5,1.7-3.3,1.7-4.3a1.9,1.9,0,0,0-1.9-2,2,2,0,0,0-2,2c0,1,.9,3.8,1.8,4.2a1.2,1.2,0,0,0-.7.5c.3-1-1.5-3.3-2.3-4a1.9,1.9,0,0,0-2.7.3,1.9,1.9,0,0,0,.3,2.8c.8.7,3.8,1.9,4.5,1.1v.4a1,1,0,0,0,1,1.1c-1,.3-1.7,3.3-1.7,4.3a1.9,1.9,0,0,0,1.9,2,2,2,0,0,0,2-2c0-1-.9-4.1-2-4.3a1.2,1.2,0,0,0,1-1.1c0-.1-.1-.2-.1-.3s3.7-.2,4.6-.8a2,2,0,0,0,.6-2.7A2,2,0,0,0,252.7,65.5Z" style="fill:#fff"/><path d="M250.1,70.5c-.5.9,2,3.1,2.9,3.7a2,2,0,0,0,1.8-3.6C253.9,70.1,250.6,69.5,250.1,70.5Z" style="fill:#fff"/><path d="M245.2,74.3c1-.5,3.5-2.6,3.1-3.6s-3.6-.5-4.6-.1a2,2,0,0,0-1.1,2.6A2.1,2.1,0,0,0,245.2,74.3Z" style="fill:#fff"/><path d="M201.6,70.5c-.9-.5-4.2-1.2-4.7-.2s2,3.2,2.9,3.7a2.1,2.1,0,0,0,2.7-.8A2,2,0,0,0,201.6,70.5Z" style="fill:#fff"/><path d="M195.1,70.5c-.4-1-3.6-.5-4.6-.1a2,2,0,1,0,1.5,3.7C193,73.7,195.6,71.5,195.1,70.5Z" style="fill:#fff"/><path d="M192.8,65.2a1.8,1.8,0,0,0-2.7.3,2,2,0,0,0,.3,2.8c.8.6,3.8,1.8,4.6,1.1s-.1.2-.1.4a1.1,1.1,0,0,0,1,1.1c-1,.2-1.7,3.2-1.7,4.3a2,2,0,1,0,3.9,0c0-1.1-.9-4.2-2-4.3a1.2,1.2,0,0,0,1-1.1c0-.2-.1-.3-.1-.4s3.7-.2,4.6-.7a2.1,2.1,0,0,0,.6-2.8,2,2,0,0,0-2.7-.6c-.9.6-2.8,2.9-2.6,3.9a1.3,1.3,0,0,0-.7-.5c1-.3,1.7-3.3,1.7-4.3a1.9,1.9,0,0,0-1.9-2,2,2,0,0,0-2,2c0,1,.9,3.9,1.8,4.3a1,1,0,0,0-.7.4C195.4,68.1,193.6,65.8,192.8,65.2Z" style="fill:#fff"/><path d="M184.7,15.5a3.1,3.1,0,0,0,3.8-1.6A3,3,0,0,0,187,9.8a2.9,2.9,0,0,0-3.9,1.8A3.2,3.2,0,0,0,184.7,15.5Z" style="fill:#fff"/><path d="M175.5,9.7a2.3,2.3,0,0,0,1.7,2.8,2.5,2.5,0,0,0,2.9-1.8,2.4,2.4,0,0,0-1.8-3A2.3,2.3,0,0,0,175.5,9.7Z" style="fill:#fff"/><path d="M170.4,11a1.8,1.8,0,0,0,1.8-1.7,1.9,1.9,0,0,0-1.7-2,1.8,1.8,0,0,0-1.8,1.9A1.8,1.8,0,0,0,170.4,11Z" style="fill:#fff"/><path d="M164.5,10.8a1.3,1.3,0,0,0,1-1.4,1.2,1.2,0,0,0-1.4-1.1,1.1,1.1,0,0,0-1,1.4A1.2,1.2,0,0,0,164.5,10.8Z" style="fill:#fff"/><path d="M159.4,11.8a1.1,1.1,0,0,0,.5-1.3,1,1,0,0,0-1.2-.7,1,1,0,0,0-.5,1.3A1.1,1.1,0,0,0,159.4,11.8Z" style="fill:#fff"/><path d="M155,13.4a.7.7,0,0,0,.2-.9.7.7,0,0,0-.9-.4.6.6,0,0,0-.2,1A.6.6,0,0,0,155,13.4Z" style="fill:#fff"/><path d="M151.3,15.5c.2-.1.2-.4.1-.6s-.5-.2-.6,0-.2.4-.1.6A.4.4,0,0,0,151.3,15.5Z" style="fill:#fff"/><path d="M148.4,18a.3.3,0,0,0,0-.4.4.4,0,0,0-.5,0,.3.3,0,0,0,0,.4A.4.4,0,0,0,148.4,18Z" style="fill:#fff"/><path d="M161.2,76.4a2.1,2.1,0,0,0-1.7,2.6,2.2,2.2,0,0,0,2.8,1.5,2.1,2.1,0,1,0-1.1-4.1Z" style="fill:#fff"/><path d="M163.1,82.6a1.8,1.8,0,0,0-.9,2.4,1.7,1.7,0,0,0,2.4.7,1.8,1.8,0,0,0,.9-2.3A2,2,0,0,0,163.1,82.6Z" style="fill:#fff"/><path d="M167.3,89.9a1.3,1.3,0,0,0,.3-1.8,1.2,1.2,0,0,0-1.8-.3,1.3,1.3,0,0,0-.4,1.8A1.4,1.4,0,0,0,167.3,89.9Z" style="fill:#fff"/><path d="M170.1,92.8a.9.9,0,0,0,0-1.2,1,1,0,0,0-1.3,0,.9.9,0,0,0,0,1.3A.9.9,0,0,0,170.1,92.8Z" style="fill:#fff"/><path d="M173.1,95.1a.8.8,0,0,0-.2-1,.7.7,0,0,0-.9.2.7.7,0,0,0,.1,1A.8.8,0,0,0,173.1,95.1Z" style="fill:#fff"/><path d="M176.1,96.5a.5.5,0,0,0-.9-.3c-.2.2-.1.5.2.6A.5.5,0,0,0,176.1,96.5Z" style="fill:#fff"/><path d="M178.9,97.4a.8.8,0,0,0-.2-.4c-.2,0-.3.1-.4.3a.8.8,0,0,0,.2.4C178.7,97.7,178.9,97.6,178.9,97.4Z" style="fill:#fff"/><path d="M181.6,97.9c0-.1-.1-.2-.2-.3l-.2.2c0,.2,0,.3.2.3Z" style="fill:#fff"/><path d="M217.6,52.1a2.2,2.2,0,0,0,1.3-2.9,2.4,2.4,0,0,0-2.8-1.3,2.2,2.2,0,0,0-1.2,2.8A2,2,0,0,0,217.6,52.1Z" style="fill:#fff"/><path d="M211.2,53.4a1.8,1.8,0,0,0,1.4-2.1,1.8,1.8,0,0,0-2-1.5,1.9,1.9,0,0,0-1.4,2A1.7,1.7,0,0,0,211.2,53.4Z" style="fill:#fff"/><path d="M205.6,50.7a1.3,1.3,0,0,0-1.3,1.3,1.3,1.3,0,0,0,1.3,1.4,1.3,1.3,0,0,0,1.2-1.4A1.3,1.3,0,0,0,205.6,50.7Z" style="fill:#fff"/><path d="M200.9,52.5a1,1,0,0,0,1.1-.8.9.9,0,0,0-.7-1,.8.8,0,0,0-1,.7A.8.8,0,0,0,200.9,52.5Z" style="fill:#fff"/><path d="M198,50.7c.1-.4,0-.8-.4-.9a.7.7,0,0,0-.9.4.8.8,0,0,0,.4,1A.8.8,0,0,0,198,50.7Z" style="fill:#fff"/><path d="M194.6,49.2a.6.6,0,0,0-.1-.8.7.7,0,0,0-.7.2.5.5,0,0,0,.8.6Z" style="fill:#fff"/><path d="M191.9,47.2a.3.3,0,0,0,0-.4h-.4c-.2.2-.1.3,0,.5S191.8,47.3,191.9,47.2Z" style="fill:#fff"/><path d="M189.5,44.9a.2.2,0,0,0,0,.3h.3a.2.2,0,0,0,0-.3C189.8,44.8,189.6,44.8,189.5,44.9Z" style="fill:#fff"/><path d="M115.9,61.9a7.1,7.1,0,0,1,2.2,4.3c-2.3,2.6-5.2,4.6-3.4,9.1,1.1.8,2.1-1.2,2.1.2,1.3,7.2-7.9,5.6-6.4,11.1,3.1-3.4,9.1.3,11.7-6a2.6,2.6,0,0,0,1.4,1.7C127.5,73.2,122.5,63.3,115.9,61.9Zm.2,20.8c8.9-7.2,2.9-17.9,2.9-17.9C127.3,77.7,116.1,82.7,116.1,82.7Z" style="fill:#fff"/><path d="M95.7,101.4c-1.3.2.5-1-.4-2-4.8-1.1-6.3,2.1-8.5,4.7a6.9,6.9,0,0,1-4.6-1.6c2.4,6.4,12.9,9.9,21.2,4.5a2.5,2.5,0,0,0-1.8-1.1c5.8-3.5,1.3-8.9,4.2-12.5C100.1,92.8,103.1,101.6,95.7,101.4Zm-10.2,3.8s11.5,4.3,17.3-5.6C102.8,99.6,99.5,111.5,85.5,105.2Z" style="fill:#fff"/><path d="M161.9,107.1c8.2,5.5,18.8,2.2,21.3-4.1a6.7,6.7,0,0,1-4.6,1.5c-2.2-2.7-3.6-5.9-8.4-4.9-1,1,.8,2.3-.5,2-7.3.1-4.2-8.7-9.8-8.2,2.7,3.7-1.9,8.9,3.9,12.5A2.5,2.5,0,0,0,161.9,107.1Zm.8-7.4c5.5,10,17.2,6,17.2,6C165.7,111.6,162.7,99.7,162.7,99.7Z" style="fill:#fff"/><path d="M142.9,82.1a2.6,2.6,0,0,0,1.4-1.7c2.5,6.4,8.5,2.9,11.6,6.3,1.6-5.4-7.6-4.1-6.2-11.3.1-1.3,1,.7,2.1-.1,1.9-4.4-.9-6.5-3.2-9.1a7.1,7.1,0,0,1,2.4-4.3C144.3,63.1,139.1,72.9,142.9,82.1Zm7.4.6s-11.1-5.2-2.6-18C147.7,64.7,141.5,75.3,150.3,82.7Z" style="fill:#fff"/><path d="M149.5,171.9a7.1,7.1,0,0,1-2.2-4.4c2.3-2.5,5.2-4.5,3.4-9-1.1-.8-2.1,1.2-2.1-.2-1.3-7.2,7.9-5.6,6.4-11.1-3.1,3.4-9.1-.3-11.7,6a2.6,2.6,0,0,0-1.4-1.7C137.9,160.6,142.9,170.5,149.5,171.9Zm-.2-20.9c-8.9,7.3-2.9,18-2.9,18C138.1,156.1,149.3,151,149.3,151Z" style="fill:#fff"/><path d="M163,127.8a2.5,2.5,0,0,0,1.8,1.1c-5.8,3.5-1.3,8.8-4.2,12.5,5.7.6,2.7-8.3,10.1-8,1.3-.2-.5,1,.4,2,4.8,1.1,6.3-2.1,8.5-4.7a6.9,6.9,0,0,1,4.6,1.6C181.8,125.9,171.3,122.4,163,127.8Zm.6,7.4s3.3-11.9,17.3-5.6C180.9,129.6,169.4,125.2,163.6,135.2Z" style="fill:#fff"/><path d="M102.5,127.7c-8.2-5.5-18.8-2.3-21.3,4a7.2,7.2,0,0,1,4.6-1.4c2.2,2.7,3.6,5.9,8.4,4.9,1-1-.8-2.3.5-2,7.3-.1,4.2,8.7,9.8,8.2-2.7-3.7,1.9-8.9-3.9-12.6A2.4,2.4,0,0,0,102.5,127.7Zm-.8,7.4c-5.5-10-17.2-6-17.2-6C98.7,123.2,101.7,135.1,101.7,135.1Z" style="fill:#fff"/><path d="M122.5,152.7a2.6,2.6,0,0,0-1.4,1.7c-2.5-6.4-8.5-2.9-11.6-6.3-1.6,5.4,7.6,4.1,6.2,11.2-.1,1.4-1-.6-2.1.2-1.9,4.4.9,6.5,3.2,9.1a7.1,7.1,0,0,1-2.4,4.3C121.1,171.6,126.3,161.9,122.5,152.7Zm-7.4-.6s11.1,5.2,2.6,18C117.7,170.1,123.9,159.5,115.1,152.1Z" style="fill:#fff"/><path d="M264.2,195.4a6.6,6.6,0,0,0-4.9,5.7,12.4,12.4,0,0,0-.2,1.8A8,8,0,0,0,267,211h0V195h0A8.6,8.6,0,0,0,264.2,195.4Z" style="fill:#fff"/><path d="M263,218a4,4,0,0,0,4,4h0v-8h0A4,4,0,0,0,263,218Z" style="fill:#fff"/><path d="M260.6,183a5.3,5.3,0,0,0,5.4,5.2h1V177.9h-1A5.3,5.3,0,0,0,260.6,183Z" style="fill:#fff"/><path d="M262,166.8a3.9,3.9,0,0,0,4.1,3.8h.9V163h-.9A4,4,0,0,0,262,166.8Z" style="fill:#fff"/><path d="M263.3,153.2a2.6,2.6,0,0,0,2.8,2.6h.9v-5l-.9-.2A2.7,2.7,0,0,0,263.3,153.2Z" style="fill:#fff"/><path d="M263.9,141.3a2.1,2.1,0,0,0,2.2,2.1l.9-.2v-3.7l-.9-.2A2.1,2.1,0,0,0,263.9,141.3Z" style="fill:#fff"/><path d="M261.9,106.5c0,1.9,1.5,7.2,3.3,8.1a1.6,1.6,0,0,0-1.3.8c.4-2-2.9-6.3-4.3-7.5a3.7,3.7,0,0,0-4.6,5.9c1.5,1.3,7.1,3.5,8.6,2.1a2.2,2.2,0,0,0-.1.8,3.6,3.6,0,0,0,.2,1c-1.3-1.4-6.8-.5-8.5.2a3.7,3.7,0,0,0-2,4.9,3.7,3.7,0,0,0,4.8,2c1.9-.8,6.8-4.8,6-6.8h-.1a2.1,2.1,0,0,0,1.4.7c-1.8.7-3.1,6.2-3.1,8.2a3.7,3.7,0,0,0,3.6,3.7l1.2-.2V103.1a3.2,3.2,0,0,0-1.4-.3A3.6,3.6,0,0,0,261.9,106.5Z" style="fill:#fff"/><path d="M258.1,31.8a7.9,7.9,0,0,0,7.9,7.9h1V24h-1A7.9,7.9,0,0,0,258.1,31.8Z" style="fill:#fff"/><path d="M263,16a4,4,0,0,0,4,4h0V12h0A4,4,0,0,0,263,16Z" style="fill:#fff"/><path d="M260.6,51a5.3,5.3,0,0,0,5.4,5.2h1V45.9h-1A5.3,5.3,0,0,0,260.6,51Z" style="fill:#fff"/><path d="M261.9,67.3a3.9,3.9,0,0,0,4,3.8l1.1-.2V63.6l-1.1-.2A3.9,3.9,0,0,0,261.9,67.3Z" style="fill:#fff"/><path d="M263.1,80.8a2.8,2.8,0,0,0,2.8,2.7l1.1-.2V78.4a2,2,0,0,0-1.1-.2A2.7,2.7,0,0,0,263.1,80.8Z" style="fill:#fff"/><path d="M263.7,92.7a2.1,2.1,0,0,0,2.2,2,2,2,0,0,0,1.1-.3V90.9a2,2,0,0,0-1.1-.3A2.1,2.1,0,0,0,263.7,92.7Z" style="fill:#fff"/><path d="M7.9,202.8A7.9,7.9,0,0,0,0,194.9v15.8A7.9,7.9,0,0,0,7.9,202.8Z" style="fill:#fff"/><path d="M3.9,218.4a3.9,3.9,0,0,0-3.9-4v7.9A3.9,3.9,0,0,0,3.9,218.4Z" style="fill:#fff"/><path d="M4.4,183A5.3,5.3,0,0,0,0,177.9v10.2A5.3,5.3,0,0,0,4.4,183Z" style="fill:#fff"/><path d="M3.1,166.8A3.9,3.9,0,0,0,0,163v7.5A3.8,3.8,0,0,0,3.1,166.8Z" style="fill:#fff"/><path d="M1.9,153.2A2.7,2.7,0,0,0,0,150.7v5A2.8,2.8,0,0,0,1.9,153.2Z" style="fill:#fff"/><path d="M1.3,141.3A1.9,1.9,0,0,0,0,139.5v3.7A2,2,0,0,0,1.3,141.3Z" style="fill:#fff"/><path d="M2.5,126.9A16.3,16.3,0,0,0,0,119.5v10.9A3.7,3.7,0,0,0,2.5,126.9Z" style="fill:#fff"/><path d="M5.8,124.6a3.6,3.6,0,0,0,5-1.6,3.6,3.6,0,0,0-1.5-5c-1.8-1-7.8-2.1-8.9-.4a2.9,2.9,0,0,0,.2-.9,1.5,1.5,0,0,0-.1-.7c1.3,1.6,6.9-.3,8.6-1.4a3.8,3.8,0,0,0,1.2-5.2,3.7,3.7,0,0,0-5.1-1.2c-1.6,1.1-5.2,5.3-4.9,7.3l-.3-.3v2.9l.3-.3C-.5,119.6,4.1,123.7,5.8,124.6Z" style="fill:#fff"/><path d="M0,103.1v10.8c1.4-1.7,2.3-5.8,2.3-7.4A3.7,3.7,0,0,0,0,103.1Z" style="fill:#fff"/><path d="M6.9,31.8A7.9,7.9,0,0,0,0,24V39.6A7.9,7.9,0,0,0,6.9,31.8Z" style="fill:#fff"/><path d="M3.9,16.2a3.9,3.9,0,0,0-3.9-4v7.9A3.8,3.8,0,0,0,3.9,16.2Z" style="fill:#fff"/><path d="M4.4,51A5.3,5.3,0,0,0,0,45.9V56.1A5.3,5.3,0,0,0,4.4,51Z" style="fill:#fff"/><path d="M3,67.3a3.8,3.8,0,0,0-3-3.7v7.3A3.8,3.8,0,0,0,3,67.3Z" style="fill:#fff"/><path d="M1.7,80.8A2.6,2.6,0,0,0,0,78.4v4.9A2.7,2.7,0,0,0,1.7,80.8Z" style="fill:#fff"/><path d="M1.1,92.7A1.9,1.9,0,0,0,0,90.9v3.5A1.8,1.8,0,0,0,1.1,92.7Z" style="fill:#fff"/><path d="M9.3,11.7c.3.6,1.1.5,1.6.4a2.4,2.4,0,0,0,.8-.9A2.2,2.2,0,0,0,11,8.7a2.5,2.5,0,0,0-3.1,0,3.4,3.4,0,0,0-1.2,3.9A3.8,3.8,0,0,0,10.3,15a4.1,4.1,0,0,0,4.1-2.9A4.6,4.6,0,0,0,13.1,7a3.3,3.3,0,0,0,1.5.4A4.2,4.2,0,0,0,19,5,3.8,3.8,0,0,0,18.4.7l-1-.7H14.3A2.7,2.7,0,0,0,13,2.8a2.2,2.2,0,0,0,2,1.8,1.5,1.5,0,0,0,1.1-.4,1.4,1.4,0,0,0,.4-1.6c-.4-.7-1.1-.4-1.7-.3S15.8.9,16.6,1s2.2,3.3.9,4.6a3.9,3.9,0,0,1-4.4.8c-1.3-.5-2-1.9-2.7-3.1a4.9,4.9,0,0,0,2.2,3.4,5.5,5.5,0,0,1,1.5,3.6,3.9,3.9,0,0,1-2.5,3.6,2.8,2.8,0,0,1-3.8-2.8c.2-.7,1-1.7,1.9-1S8.8,11.1,9.3,11.7Z" style="fill:#fff"/><path d="M29.9,5.3A6.6,6.6,0,0,0,36.2,0H23.7A6.5,6.5,0,0,0,29.9,5.3Z" style="fill:#fff"/><path d="M48.5,3.9a5.1,5.1,0,0,0,5-3.9h-10A5.2,5.2,0,0,0,48.5,3.9Z" style="fill:#fff"/><path d="M64.8,2.6A3.8,3.8,0,0,0,68.3,0H61.2A3.8,3.8,0,0,0,64.8,2.6Z" style="fill:#fff"/><path d="M78.3,1.4A2.7,2.7,0,0,0,80.6,0H76A2.7,2.7,0,0,0,78.3,1.4Z" style="fill:#fff"/><path d="M90.2.8A1.9,1.9,0,0,0,91.7,0H88.6A1.9,1.9,0,0,0,90.2.8Z" style="fill:#fff"/><path d="M101.4,0h-1.3l.7.2Z" style="fill:#fff"/><path d="M125.8,7.4c1.8-.8,6.7-4.9,5.9-6.8h-.1a2.1,2.1,0,0,0,1.4.7c-1.8.7-3.1,6.2-3.1,8.2a3.7,3.7,0,1,0,7.3,0c0-2-1.6-7.7-3.6-8.2A2.3,2.3,0,0,0,135,.4c-.8,1.8,3.8,5.9,5.5,6.8a3.6,3.6,0,0,0,5-1.6,3.6,3.6,0,0,0-1.5-5L142.4,0H124.6l-1.7.5a3.7,3.7,0,0,0,2.9,6.9Z" style="fill:#fff"/><path d="M251.5,7.4a3.3,3.3,0,0,0,1.4-.4,5,5,0,0,0-1.3,5.1,4.2,4.2,0,0,0,4.1,2.9,3.7,3.7,0,0,0,3.6-2.4,3.4,3.4,0,0,0-1.1-3.9,2.5,2.5,0,0,0-3.1,0,2.2,2.2,0,0,0-.8,2.5,2.4,2.4,0,0,0,.8.9c.5.1,1.3.2,1.7-.4s-.1-1.2-.5-1.6,1.7.3,1.9,1-2,3.5-3.7,2.8a3.8,3.8,0,0,1-2.6-3.6c-.1-1.4.8-2.5,1.5-3.6a4.6,4.6,0,0,0,2.2-3.4c-.7,1.2-1.3,2.6-2.7,3.1a3.7,3.7,0,0,1-4.3-.8c-1.4-1.3-1.2-4,.8-4.6s2.1.2,1.8,1.3-1.3-.4-1.6.3a1.4,1.4,0,0,0,.3,1.6,1.5,1.5,0,0,0,1.1.4,2.2,2.2,0,0,0,2-1.8A2.5,2.5,0,0,0,251.7,0h-3l-1,.7A3.6,3.6,0,0,0,247,5,4.4,4.4,0,0,0,251.5,7.4Z" style="fill:#fff"/><path d="M236.1,5.3A6.5,6.5,0,0,0,242.3,0H229.8A6.6,6.6,0,0,0,236.1,5.3Z" style="fill:#fff"/><path d="M217.5,3.9a5.2,5.2,0,0,0,5-3.9h-10A5.1,5.1,0,0,0,217.5,3.9Z" style="fill:#fff"/><path d="M201.2,2.5A3.9,3.9,0,0,0,204.8,0h-7.1A3.9,3.9,0,0,0,201.2,2.5Z" style="fill:#fff"/><path d="M187.7,1.2A2.7,2.7,0,0,0,189.9,0h-4.4A2.7,2.7,0,0,0,187.7,1.2Z" style="fill:#fff"/><path d="M177.3,0h-2.9a2,2,0,0,0,1.4.6A2,2,0,0,0,177.3,0Z" style="fill:#fff"/><path d="M165.5,0h0Z" style="fill:#fff"/><path d="M266.9,0h-1.1c-1.3.9-2.1,4.7-2.1,6a2.8,2.8,0,0,0,2.8,2.9h.5V.1Z" style="fill:#fff"/><path d="M260.5,4.5c1.3-.5,4.2-2.9,4.6-4.5h-7.8a2.9,2.9,0,0,0-.4,3A2.8,2.8,0,0,0,260.5,4.5Z" style="fill:#fff"/><path d="M4.8,4.3A2.7,2.7,0,0,0,8.6,3.1,2.7,2.7,0,0,0,8.3,0H.6C1.2,1.6,3.7,3.7,4.8,4.3Z" style="fill:#fff"/><path d="M2.3,6c0-1.3-1-4.9-2.3-5.9V8.9A2.9,2.9,0,0,0,2.3,6Z" style="fill:#fff"/><path d="M14.4,238h3A3.9,3.9,0,0,0,14.4,238Z" style="fill:#fff"/><path d="M14.6,228.1a4.7,4.7,0,0,0-4.2,4.2c.7-1.3,1.4-2.6,2.7-3.2a4.2,4.2,0,0,1,4.4.8c1.3,1.4,1.1,4-.9,4.6s-2-.1-1.8-1.2,1.3.3,1.7-.4a1.4,1.4,0,0,0-.4-1.6,2.1,2.1,0,0,0-1.1-.4,2.2,2.2,0,0,0-2,1.8,2.7,2.7,0,0,0,1.3,2.8,3.4,3.4,0,0,0,4.1-.7,3.7,3.7,0,0,0,.6-4.2A4.2,4.2,0,0,0,14.6,228.1Z" style="fill:#fff"/><path d="M29.9,229.8a6.6,6.6,0,0,0-6.4,6.7,7.7,7.7,0,0,0,.2,1.5H36.2a7.7,7.7,0,0,0,.2-1.5A6.6,6.6,0,0,0,29.9,229.8Z" style="fill:#fff"/><path d="M48.5,231.1a5.3,5.3,0,0,0-5.2,5.4,7.7,7.7,0,0,0,.2,1.5h10a7.7,7.7,0,0,0,.2-1.5A5.3,5.3,0,0,0,48.5,231.1Z" style="fill:#fff"/><path d="M64.8,232.5a4,4,0,0,0-3.9,4.1,3.2,3.2,0,0,0,.3,1.4h7.1a3.2,3.2,0,0,0,.3-1.4A3.9,3.9,0,0,0,64.8,232.5Z" style="fill:#fff"/><path d="M78.3,233.8a2.6,2.6,0,0,0-2.6,2.8A3.2,3.2,0,0,0,76,238h4.6a3.3,3.3,0,0,0,.4-1.4A2.7,2.7,0,0,0,78.3,233.8Z" style="fill:#fff"/><path d="M90.2,234.4a2.1,2.1,0,0,0-2.1,2.2,2.4,2.4,0,0,0,.5,1.4h3.1a2.4,2.4,0,0,0,.5-1.4A2.1,2.1,0,0,0,90.2,234.4Z" style="fill:#fff"/><path d="M100.8,235a1.5,1.5,0,0,0-1.5,1.6,1.6,1.6,0,0,0,.8,1.4h1.3a1.7,1.7,0,0,0,.9-1.4A1.6,1.6,0,0,0,100.8,235Z" style="fill:#fff"/><path d="M110.3,235.6a.9.9,0,0,0-.9,1,.9.9,0,0,0,1.8,0A.9.9,0,0,0,110.3,235.6Z" style="fill:#fff"/><path d="M118.9,235.9a.7.7,0,0,0-.7.7.7.7,0,0,0,.7.6.6.6,0,0,0,.6-.6A.7.7,0,0,0,118.9,235.9Z" style="fill:#fff"/><path d="M139.9,228.8c-1.6,1.1-5.2,5.3-4.9,7.3a2.7,2.7,0,0,0-1.2-.9c1.9-.7,3.2-6.2,3.2-8.1a3.7,3.7,0,0,0-3.7-3.7,3.6,3.6,0,0,0-3.7,3.7c0,1.9,1.5,7.2,3.4,8.1a1.6,1.6,0,0,0-1.4.8c.5-2-2.8-6.3-4.3-7.5a3.7,3.7,0,0,0-4.6,5.9c1.6,1.3,7.2,3.5,8.6,2.1a2.9,2.9,0,0,0,0,1.5h3.9a1.9,1.9,0,0,0,.1-.8,1.3,1.3,0,0,0-.1-.6c1.3,1.6,6.9-.3,8.6-1.4A3.8,3.8,0,0,0,145,230,3.7,3.7,0,0,0,139.9,228.8Z" style="fill:#fff"/><path d="M135.3,238h7.1C140,237.3,136.4,236.9,135.3,238Z" style="fill:#fff"/><path d="M124.6,238H131C129.7,237.3,126.7,237.5,124.6,238Z" style="fill:#fff"/><path d="M248.7,238h2.9A3.7,3.7,0,0,0,248.7,238Z" style="fill:#fff"/><path d="M251.5,228.1a4.4,4.4,0,0,0-4.5,2.5,3.5,3.5,0,0,0,.7,4.2,3.2,3.2,0,0,0,4,.7,2.5,2.5,0,0,0,1.3-2.8,2.2,2.2,0,0,0-2-1.8,2.1,2.1,0,0,0-1.1.4c-.3.4-.7,1.1-.3,1.6s1.1.5,1.6.4-1,1.3-1.8,1.2-2.2-3.2-.8-4.6a4.1,4.1,0,0,1,4.3-.8c1.4.6,2,1.9,2.7,3.2A4.7,4.7,0,0,0,251.5,228.1Z" style="fill:#fff"/><path d="M236.1,229.8a6.6,6.6,0,0,0-6.5,6.7,7.7,7.7,0,0,0,.2,1.5h12.5a7.7,7.7,0,0,0,.2-1.5A6.6,6.6,0,0,0,236.1,229.8Z" style="fill:#fff"/><path d="M217.5,231.1a5.3,5.3,0,0,0-5.2,5.4,7.7,7.7,0,0,0,.2,1.5h10a7.7,7.7,0,0,0,.2-1.5A5.3,5.3,0,0,0,217.5,231.1Z" style="fill:#fff"/><path d="M201.2,232.4a3.9,3.9,0,0,0-3.8,4,4.1,4.1,0,0,0,.3,1.6h7.1a4.1,4.1,0,0,0,.3-1.6A3.9,3.9,0,0,0,201.2,232.4Z" style="fill:#fff"/><path d="M187.7,233.6a2.8,2.8,0,0,0-2.2,4.4h4.4a2.7,2.7,0,0,0,.4-1.6A2.7,2.7,0,0,0,187.7,233.6Z" style="fill:#fff"/><path d="M175.8,234.2a2.1,2.1,0,0,0-2,2.2,2.3,2.3,0,0,0,.6,1.6h2.9a2.3,2.3,0,0,0,.6-1.6A2.1,2.1,0,0,0,175.8,234.2Z" style="fill:#fff"/><path d="M165.2,234.8a1.6,1.6,0,0,0-1.5,1.6,1.6,1.6,0,0,0,1.2,1.6h.6a1.5,1.5,0,0,0,1.2-1.6A1.5,1.5,0,0,0,165.2,234.8Z" style="fill:#fff"/><path d="M155.7,235.5a.9.9,0,0,0-.9.9.9.9,0,1,0,1.8,0A.9.9,0,0,0,155.7,235.5Z" style="fill:#fff"/><path d="M147.1,235.8a.6.6,0,0,0-.6.6.7.7,0,0,0,.6.7.7.7,0,0,0,.7-.7A.7.7,0,0,0,147.1,235.8Z" style="fill:#fff"/><path d="M263.5,228.5c0,1.5,1.1,5.5,2.5,6.2a1.2,1.2,0,0,0-1,.6c.3-1.5-2.2-4.8-3.3-5.7a2.7,2.7,0,0,0-3.9.5,2.9,2.9,0,0,0,.4,4c1.2.9,5.5,2.7,6.6,1.6a1.3,1.3,0,0,0-.1.6,3.1,3.1,0,0,0,.2.8c-1.1-1.1-5.2-.4-6.5.1a3.1,3.1,0,0,0-1.1.8h9.6l-.3-.2h.4v-2.8l-.3-.2.3-.2v-8.7h-.7A2.7,2.7,0,0,0,263.5,228.5Z" style="fill:#fff"/><path d="M7.3,234.7a3,3,0,0,0,.9-4,2.9,2.9,0,0,0-3.9-.9c-1.2.8-4,4.1-3.7,5.6l-.6-.5v2.8c.2-.2.5-.4.6-.6a1.4,1.4,0,0,0,0,.9H8.3a2.2,2.2,0,0,0-.9-.7c-1.3-.7-5.9-1.6-6.7-.3a1.7,1.7,0,0,0,.1-.7v-.5C1.7,237,6,235.5,7.3,234.7Z" style="fill:#fff"/><path d="M2.1,228.5A2.8,2.8,0,0,0,0,225.8v8.7C1.2,233.6,2.1,229.9,2.1,228.5Z" style="fill:#fff"/></g></svg>